<svg xmlns="http://www.w3.org/2000/svg" xmlns:xlink="http://www.w3.org/1999/xlink" width="900" zoomAndPan="magnify" viewBox="0 0 675 112.499997" height="150" preserveAspectRatio="xMidYMid meet" version="1.0"><defs><g/><clipPath id="id1"><path d="M 1.492188 0 L 673.503906 0 L 673.503906 112.003906 L 1.492188 112.003906 Z M 1.492188 0 " clip-rule="nonzero"/></clipPath></defs><g clip-path="url(#id1)"><path fill="rgb(100%, 100%, 100%)" d="M 1.492188 0 L 673.507812 0 L 673.507812 119.46875 L 1.492188 119.46875 Z M 1.492188 0 " fill-opacity="1" fill-rule="nonzero"/><path fill="rgb(97.648621%, 97.648621%, 93.728638%)" d="M 1.492188 0 L 673.507812 0 L 673.507812 112.003906 L 1.492188 112.003906 Z M 1.492188 0 " fill-opacity="1" fill-rule="nonzero"/><path fill="rgb(100%, 100%, 100%)" d="M 1.492188 0 L 673.507812 0 L 673.507812 112.003906 L 1.492188 112.003906 Z M 1.492188 0 " fill-opacity="1" fill-rule="nonzero"/><path fill="rgb(97.648621%, 97.648621%, 93.728638%)" d="M 1.492188 0 L 673.507812 0 L 673.507812 112.003906 L 1.492188 112.003906 Z M 1.492188 0 " fill-opacity="1" fill-rule="nonzero"/></g><g fill="rgb(78.819275%, 51.759338%, 45.489502%)" fill-opacity="1"><g transform="translate(275.799664, 70.561389)"><g><path d="M 2.300781 3.761719 C 2.523438 4.074219 4.292969 4.957031 5.222656 4.957031 C 5.621094 4.957031 5.886719 4.78125 5.933594 4.425781 C 5.933594 4.160156 5.976562 3.808594 6.019531 3.496094 L 6.464844 3.496094 C 13.679688 3.496094 20.054688 -1.0625 20.054688 -7.570312 C 20.054688 -11.199219 17.574219 -14.121094 14.167969 -15.714844 C 17.621094 -17.441406 19.613281 -20.277344 19.613281 -23.507812 C 19.613281 -27.890625 15.761719 -31.875 9.519531 -31.875 C 1.195312 -31.875 -1.683594 -24.570312 -1.683594 -24.570312 C -1.59375 -23.996094 0.796875 -22.800781 1.195312 -22.800781 C 1.503906 -22.800781 2.746094 -24.527344 2.921875 -24.792969 C 3.011719 -24.925781 2.613281 -25.144531 2.699219 -25.277344 C 4.027344 -27.269531 6.417969 -29.484375 10.933594 -29.484375 C 13.8125 -29.484375 16.160156 -27.980469 16.160156 -25.144531 C 16.160156 -21.339844 13.679688 -18.328125 9.738281 -16.957031 C 9.339844 -17 8.898438 -17.042969 8.5 -17.042969 C 9.121094 -21.425781 9.695312 -25.234375 10.136719 -26.960938 C 8.898438 -28.066406 7.082031 -28.289062 6.683594 -26.652344 C 5.886719 -23.996094 3.761719 -8.722656 2.613281 0.796875 C 1.949219 0.707031 1.328125 0.621094 1.152344 0.621094 C 0.796875 1.460938 0.398438 1.949219 1.105469 3.011719 C 1.238281 3.230469 1.726562 3.363281 2.347656 3.453125 C 2.300781 3.542969 2.300781 3.675781 2.300781 3.761719 Z M 10.183594 -14.386719 C 13.324219 -14.253906 16.160156 -12.839844 16.160156 -9.429688 C 16.160156 -3.675781 12.21875 0.265625 6.285156 0.929688 C 6.730469 -3.011719 7.4375 -8.722656 8.101562 -14.078125 C 8.808594 -14.167969 9.519531 -14.253906 10.183594 -14.386719 Z M 10.183594 -14.386719 "/></g></g></g><g fill="rgb(78.819275%, 51.759338%, 45.489502%)" fill-opacity="1"><g transform="translate(296.294026, 70.561389)"><g><path d="M 0 -5.179688 C 0 0.355469 3.1875 3.496094 6.597656 3.496094 C 11.511719 3.496094 13.902344 -3.011719 13.902344 -6.863281 C 13.902344 -8.101562 13.324219 -8.988281 12.617188 -8.988281 C 11.996094 -8.988281 11.996094 -8.5 11.996094 -8.5 C 11.996094 -5.578125 9.253906 -0.0429688 5.84375 -0.0429688 C 3.585938 -0.0429688 2.789062 -1.59375 2.789062 -3.675781 C 2.789062 -7.261719 3.585938 -9.605469 3.585938 -9.605469 C 3.585938 -9.605469 4.25 -7.746094 6.152344 -7.746094 C 9.652344 -7.746094 11.199219 -12.882812 11.199219 -18.550781 C 11.199219 -22.621094 9.253906 -23.949219 7.570312 -23.949219 C 3.675781 -23.949219 0 -12.574219 0 -5.179688 Z M 4.117188 -11.511719 C 4.605469 -14.742188 5.84375 -18.371094 6.90625 -20.761719 C 7.171875 -21.382812 7.394531 -21.558594 7.570312 -21.558594 C 7.792969 -21.558594 8.101562 -21.339844 8.101562 -19.480469 C 8.101562 -15.40625 6.773438 -10.402344 5.222656 -10.402344 C 4.339844 -10.402344 4.117188 -11.511719 4.117188 -11.511719 Z M 4.117188 -11.511719 "/></g></g></g><g fill="rgb(78.819275%, 51.759338%, 45.489502%)" fill-opacity="1"><g transform="translate(307.979801, 70.561389)"><g><path d="M 5.089844 -5.886719 C 5.046875 -6.640625 4.738281 -8.808594 4.738281 -11.554688 C 4.738281 -12.660156 4.824219 -18.285156 5.445312 -22.179688 C 5.445312 -22.976562 3.277344 -23.597656 2.613281 -23.597656 C 1.992188 -23.597656 1.683594 -23.242188 1.59375 -22.800781 C 1.59375 -22.800781 1.328125 -16.292969 1.328125 -11.644531 C 1.328125 -6.285156 2.167969 -2.347656 2.214844 -0.796875 C 2.257812 1.371094 3.628906 2.878906 6.019531 2.878906 C 6.863281 2.878906 7.261719 2.257812 7.261719 2.257812 C 7.261719 -5.136719 9.960938 -14.566406 12.308594 -21.605469 C 12.574219 -22.402344 13.589844 -24.304688 13.589844 -24.746094 C 13.589844 -25.324219 12.351562 -25.765625 11.777344 -25.765625 C 9.472656 -25.765625 5.84375 -8.5 5.402344 -5.886719 Z M 5.089844 -5.886719 "/></g></g></g><g fill="rgb(78.819275%, 51.759338%, 45.489502%)" fill-opacity="1"><g transform="translate(318.913073, 70.561389)"><g><path d="M 0 -5.179688 C 0 0.355469 3.1875 3.496094 6.597656 3.496094 C 11.511719 3.496094 13.902344 -3.011719 13.902344 -6.863281 C 13.902344 -8.101562 13.324219 -8.988281 12.617188 -8.988281 C 11.996094 -8.988281 11.996094 -8.5 11.996094 -8.5 C 11.996094 -5.578125 9.253906 -0.0429688 5.84375 -0.0429688 C 3.585938 -0.0429688 2.789062 -1.59375 2.789062 -3.675781 C 2.789062 -7.261719 3.585938 -9.605469 3.585938 -9.605469 C 3.585938 -9.605469 4.25 -7.746094 6.152344 -7.746094 C 9.652344 -7.746094 11.199219 -12.882812 11.199219 -18.550781 C 11.199219 -22.621094 9.253906 -23.949219 7.570312 -23.949219 C 3.675781 -23.949219 0 -12.574219 0 -5.179688 Z M 4.117188 -11.511719 C 4.605469 -14.742188 5.84375 -18.371094 6.90625 -20.761719 C 7.171875 -21.382812 7.394531 -21.558594 7.570312 -21.558594 C 7.792969 -21.558594 8.101562 -21.339844 8.101562 -19.480469 C 8.101562 -15.40625 6.773438 -10.402344 5.222656 -10.402344 C 4.339844 -10.402344 4.117188 -11.511719 4.117188 -11.511719 Z M 4.117188 -11.511719 "/></g></g></g><g fill="rgb(78.819275%, 51.759338%, 45.489502%)" fill-opacity="1"><g transform="translate(330.598848, 70.561389)"><g><path d="M 5.089844 -13.148438 C 5.222656 -15.761719 5.800781 -19.035156 5.933594 -21.425781 C 5.933594 -21.425781 4.558594 -22.445312 3.410156 -22.445312 C 1.902344 -22.445312 1.769531 -18.195312 1.636719 -13.8125 C 1.285156 -4.207031 0.796875 -2.566406 0.796875 -1.285156 C 0.796875 -0.308594 3.675781 0.929688 4.691406 0.308594 C 4.78125 -6.949219 6.90625 -12.042969 7.703125 -14.433594 C 7.878906 -12.484375 8.542969 -10.757812 11.15625 -10.757812 C 13.457031 -10.757812 14.832031 -13.28125 14.917969 -14.832031 C 14.917969 -15.140625 14.519531 -15.40625 14.210938 -15.40625 C 13.945312 -15.40625 13.414062 -12.792969 11.644531 -12.792969 C 10.933594 -12.792969 10.316406 -13.503906 10.316406 -14.121094 C 10.316406 -17.355469 12.21875 -19.964844 12.21875 -21.605469 C 12.21875 -22.488281 11.730469 -22.933594 10.800781 -23.152344 C 9.519531 -23.464844 8.367188 -23.109375 8.058594 -22.046875 C 7.4375 -19.832031 6.550781 -15.847656 5.402344 -13.015625 Z M 5.089844 -13.148438 "/></g></g></g><g fill="rgb(78.819275%, 51.759338%, 45.489502%)" fill-opacity="1"><g transform="translate(342.550205, 70.561389)"><g><path d="M 11.246094 -2.035156 C 11.332031 -0.972656 12.394531 0.886719 14.433594 0.886719 C 17.796875 0.886719 19.613281 -4.117188 19.613281 -6.464844 C 19.613281 -7.792969 18.328125 -7.660156 18.328125 -7.660156 C 18.019531 -5.003906 17.398438 -2.125 15.097656 -2.125 C 13.589844 -2.125 13.238281 -3.496094 13.238281 -5.535156 C 13.238281 -9.03125 14.34375 -13.636719 15.714844 -18.59375 C 15.980469 -19.613281 14.253906 -19.65625 13.855469 -19.789062 C 13.855469 -19.789062 13.902344 -20.054688 13.902344 -20.277344 C 13.902344 -21.605469 12.574219 -23.550781 9.5625 -23.550781 C 4.25 -23.550781 0.574219 -15.582031 0.574219 -7.570312 C 0.574219 -2.167969 3.054688 1.195312 6.332031 1.195312 C 8.5 1.195312 10.316406 -0.488281 11.023438 -2.035156 Z M 4.292969 -5.621094 C 4.292969 -10.269531 6.285156 -20.851562 9.519531 -20.851562 C 10.359375 -20.851562 10.359375 -19.789062 10.359375 -19.390625 C 10.359375 -17.796875 9.785156 -16.246094 8.855469 -14.964844 C 9.472656 -14.253906 10.890625 -13.988281 10.890625 -13.988281 C 10.890625 -12.394531 8.5 -1.816406 5.886719 -1.816406 C 4.738281 -1.816406 4.292969 -2.878906 4.292969 -5.621094 Z M 4.292969 -5.621094 "/></g></g></g><g fill="rgb(78.819275%, 51.759338%, 45.489502%)" fill-opacity="1"><g transform="translate(359.503425, 70.561389)"><g><path d="M 1.949219 4.25 C -0.132812 3.894531 -1.195312 5.621094 -0.621094 7.039062 C -0.0898438 8.324219 2.789062 10.136719 6.152344 10.136719 C 8.589844 10.136719 11.289062 6.550781 12.925781 -1.019531 C 14.386719 -7.792969 14.917969 -14.566406 15.449219 -18.0625 C 15.582031 -19.082031 13.855469 -19.257812 13.589844 -19.257812 C 13.589844 -19.257812 13.636719 -19.613281 13.636719 -19.878906 C 13.636719 -22.710938 11.597656 -23.285156 9.828125 -23.285156 C 4.25 -23.285156 0.574219 -16.425781 0.574219 -8.410156 C 0.574219 -3.011719 2.878906 0.355469 6.417969 0.355469 C 8.144531 0.355469 9.605469 -2.035156 10.359375 -3.097656 C 9.472656 1.949219 7.171875 6.640625 5.179688 7.527344 C 4.515625 7.128906 2.480469 5.535156 1.949219 4.25 Z M 4.027344 -6.464844 C 4.027344 -11.113281 6.285156 -20.585938 9.519531 -20.585938 C 10.359375 -20.585938 10.847656 -19.699219 10.847656 -18.769531 C 10.847656 -17.707031 10.625 -15.363281 10.136719 -14.253906 C 10.757812 -13.546875 11.332031 -13.589844 11.332031 -13.589844 C 11.023438 -9.164062 8.542969 -2.433594 6.199219 -2.433594 C 5.046875 -2.433594 4.027344 -3.71875 4.027344 -6.464844 Z M 4.027344 -6.464844 "/></g></g></g><g fill="rgb(78.819275%, 51.759338%, 45.489502%)" fill-opacity="1"><g transform="translate(374.863133, 70.561389)"><g><path d="M 0 -5.179688 C 0 0.355469 3.1875 3.496094 6.597656 3.496094 C 11.511719 3.496094 13.902344 -3.011719 13.902344 -6.863281 C 13.902344 -8.101562 13.324219 -8.988281 12.617188 -8.988281 C 11.996094 -8.988281 11.996094 -8.5 11.996094 -8.5 C 11.996094 -5.578125 9.253906 -0.0429688 5.84375 -0.0429688 C 3.585938 -0.0429688 2.789062 -1.59375 2.789062 -3.675781 C 2.789062 -7.261719 3.585938 -9.605469 3.585938 -9.605469 C 3.585938 -9.605469 4.25 -7.746094 6.152344 -7.746094 C 9.652344 -7.746094 11.199219 -12.882812 11.199219 -18.550781 C 11.199219 -22.621094 9.253906 -23.949219 7.570312 -23.949219 C 3.675781 -23.949219 0 -12.574219 0 -5.179688 Z M 4.117188 -11.511719 C 4.605469 -14.742188 5.84375 -18.371094 6.90625 -20.761719 C 7.171875 -21.382812 7.394531 -21.558594 7.570312 -21.558594 C 7.792969 -21.558594 8.101562 -21.339844 8.101562 -19.480469 C 8.101562 -15.40625 6.773438 -10.402344 5.222656 -10.402344 C 4.339844 -10.402344 4.117188 -11.511719 4.117188 -11.511719 Z M 4.117188 -11.511719 "/></g></g></g><g fill="rgb(78.819275%, 51.759338%, 45.489502%)" fill-opacity="1"><g transform="translate(386.548908, 70.561389)"><g><path d="M 3.984375 -16.246094 C 4.292969 -16.601562 7.660156 -18.371094 8.808594 -18.417969 C 9.253906 -18.417969 9.386719 -17.222656 9.828125 -17.222656 C 10.933594 -17.222656 13.945312 -19.65625 13.945312 -21.339844 C 13.945312 -22.136719 12.925781 -23.285156 12.484375 -23.285156 C 11.820312 -23.285156 1.0625 -19.433594 0.886719 -17.574219 C 0.796875 -16.425781 1.238281 -14.875 2.035156 -14.210938 C 4.957031 -13.855469 9.121094 -10.582031 9.121094 -6.066406 C 9.121094 -3.054688 7.792969 -1.019531 5.003906 -1.019531 C 2.433594 -1.019531 1.859375 -3.1875 1.859375 -3.585938 C 1.859375 -3.984375 3.761719 -7.480469 3.761719 -8.898438 C 3.761719 -9.296875 2.390625 -10.535156 1.769531 -10.535156 C 0.175781 -10.535156 -0.886719 -7.039062 -0.886719 -5.402344 C -0.886719 -1.902344 2.699219 2.257812 6.417969 2.257812 C 9.472656 2.257812 12.175781 0.355469 12.175781 -4.738281 C 12.175781 -12.441406 4.027344 -16.070312 4.027344 -16.070312 Z M 3.984375 -16.246094 "/></g></g></g><path stroke-linecap="butt" transform="matrix(5.229449, -0.000000000000000244, 0.000000000000000244, 5.22677, 30.891111, 58.855475)" fill="none" stroke-linejoin="miter" d="M -0.0000929537 -0.00000121744 L 43.549102 -0.00000121744 " stroke="rgb(78.819275%, 51.759338%, 45.489502%)" stroke-width="1" stroke-opacity="1" stroke-miterlimit="4"/><path stroke-linecap="butt" transform="matrix(5.226501, 0, 0, 5.22677, 416.350757, 58.855475)" fill="none" stroke-linejoin="miter" d="M 0.000154213 -0.00000121744 L 43.575402 -0.00000121744 " stroke="rgb(78.819275%, 51.759338%, 45.489502%)" stroke-width="1" stroke-opacity="1" stroke-miterlimit="4"/></svg>