<svg xmlns="http://www.w3.org/2000/svg" xmlns:xlink="http://www.w3.org/1999/xlink" width="400" zoomAndPan="magnify" viewBox="0 0 300 74.999997" height="100" preserveAspectRatio="xMidYMid meet" version="1.0"><defs><g/></defs><g fill="rgb(100%, 100%, 100%)" fill-opacity="1"><g transform="translate(15.774442, 42.056891)"><g><path d="M 13.984375 -29.921875 C 11.773438 -29.191406 10.066406 -27.988281 8.859375 -26.3125 C 7.648438 -24.644531 7.046875 -22.582031 7.046875 -20.125 C 7.046875 -19.019531 7.148438 -18.265625 7.359375 -17.859375 C 7.566406 -17.453125 7.671875 -17.203125 7.671875 -17.109375 C 4.554688 -17.109375 3 -18.429688 3 -21.078125 C 3 -22.878906 3.6875 -24.6875 5.0625 -26.5 C 6.445312 -28.3125 8.21875 -29.789062 10.375 -30.9375 C 12.539062 -32.082031 14.703125 -32.65625 16.859375 -32.65625 C 17.929688 -32.65625 19.03125 -32.453125 20.15625 -32.046875 L 19.15625 -9.09375 L 28.734375 -32.046875 L 35.015625 -32.046875 L 30.4375 0 L 24.171875 0 L 26.953125 -19.546875 L 18.765625 0 L 12.796875 0 L 13.671875 -19.640625 L 6.40625 0 L 2.921875 0 Z M 13.984375 -29.921875 "/></g></g></g><g fill="rgb(100%, 100%, 100%)" fill-opacity="1"><g transform="translate(50.038649, 42.056891)"><g><path d="M 6.359375 0.171875 C 4.210938 0.171875 2.515625 -0.378906 1.265625 -1.484375 C 0.015625 -2.585938 -0.609375 -4.328125 -0.609375 -6.703125 C -0.609375 -8.679688 -0.203125 -10.875 0.609375 -13.28125 C 1.421875 -15.6875 2.726562 -17.769531 4.53125 -19.53125 C 6.332031 -21.289062 8.597656 -22.171875 11.328125 -22.171875 C 15.035156 -22.171875 16.890625 -19.847656 16.890625 -15.203125 L 16.890625 -15.15625 C 16.984375 -15.125 17.144531 -15.109375 17.375 -15.109375 C 18.332031 -15.109375 19.4375 -15.363281 20.6875 -15.875 C 21.9375 -16.382812 23.066406 -17 24.078125 -17.71875 L 24.46875 -16.546875 C 23.625 -15.648438 22.523438 -14.890625 21.171875 -14.265625 C 19.828125 -13.640625 18.359375 -13.195312 16.765625 -12.9375 C 16.535156 -10.289062 15.941406 -7.976562 14.984375 -6 C 14.023438 -4.03125 12.789062 -2.507812 11.28125 -1.4375 C 9.769531 -0.363281 8.128906 0.171875 6.359375 0.171875 Z M 8.09375 -3.75 C 8.789062 -3.75 9.488281 -4.144531 10.1875 -4.9375 C 10.882812 -5.738281 11.492188 -6.828125 12.015625 -8.203125 C 12.535156 -9.585938 12.914062 -11.117188 13.15625 -12.796875 C 12.363281 -12.972656 11.96875 -13.582031 11.96875 -14.625 C 11.96875 -15.820312 12.421875 -16.609375 13.328125 -16.984375 C 13.265625 -17.941406 13.117188 -18.601562 12.890625 -18.96875 C 12.660156 -19.332031 12.253906 -19.515625 11.671875 -19.515625 C 10.710938 -19.515625 9.78125 -18.816406 8.875 -17.421875 C 7.976562 -16.023438 7.253906 -14.351562 6.703125 -12.40625 C 6.148438 -10.46875 5.875 -8.753906 5.875 -7.265625 C 5.875 -5.878906 6.035156 -4.945312 6.359375 -4.46875 C 6.679688 -3.988281 7.257812 -3.75 8.09375 -3.75 Z M 8.09375 -3.75 "/></g></g></g><g fill="rgb(100%, 100%, 100%)" fill-opacity="1"><g transform="translate(69.151727, 42.056891)"><g><path d="M 26.46875 0.265625 C 24.695312 0.265625 23.398438 -0.203125 22.578125 -1.140625 C 21.753906 -2.085938 21.34375 -3.257812 21.34375 -4.65625 C 21.34375 -5.269531 21.414062 -5.957031 21.5625 -6.71875 C 21.707031 -7.488281 21.859375 -8.238281 22.015625 -8.96875 C 22.171875 -9.695312 22.28125 -10.160156 22.34375 -10.359375 C 22.570312 -11.378906 22.785156 -12.378906 22.984375 -13.359375 C 23.191406 -14.347656 23.296875 -15.148438 23.296875 -15.765625 C 23.296875 -17.242188 22.773438 -17.984375 21.734375 -17.984375 C 20.972656 -17.984375 20.300781 -17.613281 19.71875 -16.875 C 19.144531 -16.132812 18.679688 -15.171875 18.328125 -13.984375 L 15.375 0 L 9.09375 0 L 12.28125 -15.03125 C 12.363281 -15.375 12.40625 -15.734375 12.40625 -16.109375 C 12.40625 -17.390625 11.972656 -18.03125 11.109375 -18.03125 C 10.296875 -18.03125 9.585938 -17.660156 8.984375 -16.921875 C 8.390625 -16.179688 7.921875 -15.203125 7.578125 -13.984375 L 4.609375 0 L -1.65625 0 L 2.96875 -21.78125 L 9.234375 -21.78125 L 8.75 -19.515625 C 10.226562 -21.160156 12 -21.984375 14.0625 -21.984375 C 16.613281 -21.984375 18.109375 -20.738281 18.546875 -18.25 C 20.148438 -20.71875 22.171875 -21.953125 24.609375 -21.953125 C 26.085938 -21.953125 27.257812 -21.546875 28.125 -20.734375 C 29 -19.921875 29.4375 -18.6875 29.4375 -17.03125 C 29.4375 -16.1875 29.332031 -15.25 29.125 -14.21875 C 28.925781 -13.1875 28.640625 -11.929688 28.265625 -10.453125 C 28.023438 -9.546875 27.8125 -8.664062 27.625 -7.8125 C 27.4375 -6.957031 27.34375 -6.285156 27.34375 -5.796875 C 27.34375 -5.210938 27.472656 -4.757812 27.734375 -4.4375 C 27.992188 -4.125 28.445312 -3.96875 29.09375 -3.96875 C 29.957031 -3.96875 30.648438 -4.273438 31.171875 -4.890625 C 31.703125 -5.515625 32.226562 -6.484375 32.75 -7.796875 L 34.578125 -7.796875 C 33.503906 -4.597656 32.257812 -2.453125 30.84375 -1.359375 C 29.4375 -0.273438 27.976562 0.265625 26.46875 0.265625 Z M 26.46875 0.265625 "/></g></g></g><g fill="rgb(100%, 100%, 100%)" fill-opacity="1"><g transform="translate(101.892119, 42.056891)"><g><path d="M 26.46875 0.265625 C 24.695312 0.265625 23.398438 -0.203125 22.578125 -1.140625 C 21.753906 -2.085938 21.34375 -3.257812 21.34375 -4.65625 C 21.34375 -5.269531 21.414062 -5.957031 21.5625 -6.71875 C 21.707031 -7.488281 21.859375 -8.238281 22.015625 -8.96875 C 22.171875 -9.695312 22.28125 -10.160156 22.34375 -10.359375 C 22.570312 -11.378906 22.785156 -12.378906 22.984375 -13.359375 C 23.191406 -14.347656 23.296875 -15.148438 23.296875 -15.765625 C 23.296875 -17.242188 22.773438 -17.984375 21.734375 -17.984375 C 20.972656 -17.984375 20.300781 -17.613281 19.71875 -16.875 C 19.144531 -16.132812 18.679688 -15.171875 18.328125 -13.984375 L 15.375 0 L 9.09375 0 L 12.28125 -15.03125 C 12.363281 -15.375 12.40625 -15.734375 12.40625 -16.109375 C 12.40625 -17.390625 11.972656 -18.03125 11.109375 -18.03125 C 10.296875 -18.03125 9.585938 -17.660156 8.984375 -16.921875 C 8.390625 -16.179688 7.921875 -15.203125 7.578125 -13.984375 L 4.609375 0 L -1.65625 0 L 2.96875 -21.78125 L 9.234375 -21.78125 L 8.75 -19.515625 C 10.226562 -21.160156 12 -21.984375 14.0625 -21.984375 C 16.613281 -21.984375 18.109375 -20.738281 18.546875 -18.25 C 20.148438 -20.71875 22.171875 -21.953125 24.609375 -21.953125 C 26.085938 -21.953125 27.257812 -21.546875 28.125 -20.734375 C 29 -19.921875 29.4375 -18.6875 29.4375 -17.03125 C 29.4375 -16.1875 29.332031 -15.25 29.125 -14.21875 C 28.925781 -13.1875 28.640625 -11.929688 28.265625 -10.453125 C 28.023438 -9.546875 27.8125 -8.664062 27.625 -7.8125 C 27.4375 -6.957031 27.34375 -6.285156 27.34375 -5.796875 C 27.34375 -5.210938 27.472656 -4.757812 27.734375 -4.4375 C 27.992188 -4.125 28.445312 -3.96875 29.09375 -3.96875 C 29.957031 -3.96875 30.648438 -4.273438 31.171875 -4.890625 C 31.703125 -5.515625 32.226562 -6.484375 32.75 -7.796875 L 34.578125 -7.796875 C 33.503906 -4.597656 32.257812 -2.453125 30.84375 -1.359375 C 29.4375 -0.273438 27.976562 0.265625 26.46875 0.265625 Z M 26.46875 0.265625 "/></g></g></g><g fill="rgb(100%, 100%, 100%)" fill-opacity="1"><g transform="translate(134.63251, 42.056891)"><g><path d="M 6.796875 10.890625 C 5.398438 10.890625 4.238281 10.523438 3.3125 9.796875 C 2.382812 9.066406 1.921875 8.019531 1.921875 6.65625 C 1.921875 5.007812 2.585938 3.679688 3.921875 2.671875 C 5.253906 1.671875 6.953125 0.835938 9.015625 0.171875 L 9.53125 -2.171875 C 8.695312 -1.242188 7.84375 -0.601562 6.96875 -0.25 C 6.09375 0.09375 5.207031 0.265625 4.3125 0.265625 C 2.914062 0.265625 1.789062 -0.164062 0.9375 -1.03125 C 0.0820312 -1.90625 -0.34375 -3.21875 -0.34375 -4.96875 C -0.34375 -5.6875 -0.226562 -6.628906 0 -7.796875 L 2.96875 -21.78125 L 9.234375 -21.78125 L 6.09375 -6.96875 C 6.007812 -6.613281 5.96875 -6.25 5.96875 -5.875 C 5.96875 -4.601562 6.398438 -3.96875 7.265625 -3.96875 C 8.023438 -3.96875 8.691406 -4.289062 9.265625 -4.9375 C 9.847656 -5.59375 10.316406 -6.457031 10.671875 -7.53125 L 13.71875 -21.78125 L 19.984375 -21.78125 L 15.671875 -1.5625 C 17.066406 -2.03125 18.1875 -2.726562 19.03125 -3.65625 C 19.875 -4.582031 20.582031 -5.960938 21.15625 -7.796875 L 23 -7.796875 C 22.207031 -5.210938 21.144531 -3.316406 19.8125 -2.109375 C 18.476562 -0.910156 16.96875 -0.09375 15.28125 0.34375 L 14.625 3.484375 C 14.050781 6.296875 13.050781 8.234375 11.625 9.296875 C 10.207031 10.359375 8.597656 10.890625 6.796875 10.890625 Z M 5.796875 7.484375 C 6.285156 7.484375 6.757812 7.148438 7.21875 6.484375 C 7.6875 5.816406 8.050781 4.859375 8.3125 3.609375 L 8.578125 2.34375 C 5.734375 3.394531 4.3125 4.628906 4.3125 6.046875 C 4.3125 6.429688 4.441406 6.765625 4.703125 7.046875 C 4.960938 7.335938 5.328125 7.484375 5.796875 7.484375 Z M 5.796875 7.484375 "/></g></g></g><g fill="rgb(100%, 100%, 100%)" fill-opacity="1"><g transform="translate(155.79186, 42.056891)"><g/></g></g><g fill="rgb(100%, 100%, 100%)" fill-opacity="1"><g transform="translate(165.239549, 42.056891)"><g><path d="M 10.015625 -27.703125 L 16.453125 -28.5625 L 13.375 -14.015625 C 14.757812 -14.140625 16.039062 -14.75 17.21875 -15.84375 C 18.394531 -16.945312 19.316406 -18.3125 19.984375 -19.9375 C 20.648438 -21.570312 20.984375 -23.171875 20.984375 -24.734375 C 20.984375 -26.472656 20.535156 -27.894531 19.640625 -29 C 18.742188 -30.101562 17.394531 -30.65625 15.59375 -30.65625 C 12.050781 -30.65625 9.285156 -29.722656 7.296875 -27.859375 C 5.304688 -26.003906 4.3125 -23.410156 4.3125 -20.078125 C 4.3125 -19.003906 4.410156 -18.253906 4.609375 -17.828125 C 4.816406 -17.410156 4.921875 -17.171875 4.921875 -17.109375 C 3.347656 -17.109375 2.175781 -17.4375 1.40625 -18.09375 C 0.644531 -18.75 0.265625 -19.832031 0.265625 -21.34375 C 0.265625 -23.195312 1.023438 -25 2.546875 -26.75 C 4.066406 -28.507812 6.015625 -29.929688 8.390625 -31.015625 C 10.773438 -32.109375 13.160156 -32.65625 15.546875 -32.65625 C 17.835938 -32.65625 19.753906 -32.265625 21.296875 -31.484375 C 22.835938 -30.703125 23.976562 -29.664062 24.71875 -28.375 C 25.457031 -27.082031 25.828125 -25.648438 25.828125 -24.078125 C 25.828125 -22.191406 25.3125 -20.347656 24.28125 -18.546875 C 23.25 -16.742188 21.773438 -15.269531 19.859375 -14.125 C 17.941406 -12.976562 15.734375 -12.40625 13.234375 -12.40625 L 13.015625 -12.40625 L 10.359375 0 L 4.09375 0 Z M 10.015625 -27.703125 "/></g></g></g><g fill="rgb(100%, 100%, 100%)" fill-opacity="1"><g transform="translate(190.186688, 42.056891)"><g><path d="M 4.3125 0.265625 C 2.914062 0.265625 1.789062 -0.164062 0.9375 -1.03125 C 0.0820312 -1.90625 -0.34375 -3.21875 -0.34375 -4.96875 C -0.34375 -5.6875 -0.226562 -6.628906 0 -7.796875 L 2.96875 -21.78125 L 9.234375 -21.78125 L 6.09375 -6.96875 C 6.007812 -6.53125 5.96875 -6.125 5.96875 -5.75 C 5.96875 -4.5625 6.398438 -3.96875 7.265625 -3.96875 C 8.078125 -3.96875 8.773438 -4.304688 9.359375 -4.984375 C 9.941406 -5.671875 10.40625 -6.609375 10.75 -7.796875 L 13.71875 -21.78125 L 19.984375 -21.78125 L 16.859375 -6.96875 C 16.734375 -6.53125 16.671875 -6.066406 16.671875 -5.578125 C 16.671875 -4.992188 16.804688 -4.578125 17.078125 -4.328125 C 17.359375 -4.085938 17.820312 -3.96875 18.46875 -3.96875 C 19.28125 -3.96875 19.984375 -4.3125 20.578125 -5 C 21.171875 -5.695312 21.640625 -6.628906 21.984375 -7.796875 L 23.8125 -7.796875 C 22.738281 -4.660156 21.410156 -2.53125 19.828125 -1.40625 C 18.253906 -0.289062 16.664062 0.265625 15.0625 0.265625 C 13.8125 0.265625 12.816406 -0.0820312 12.078125 -0.78125 C 11.335938 -1.476562 10.894531 -2.507812 10.75 -3.875 C 9.769531 -2.28125 8.734375 -1.191406 7.640625 -0.609375 C 6.554688 -0.0234375 5.445312 0.265625 4.3125 0.265625 Z M 4.3125 0.265625 "/></g></g></g><g fill="rgb(100%, 100%, 100%)" fill-opacity="1"><g transform="translate(212.173249, 42.056891)"><g><path d="M 2.96875 -21.78125 L 9.234375 -21.78125 L 8.671875 -19.078125 C 9.648438 -19.941406 10.539062 -20.609375 11.34375 -21.078125 C 12.144531 -21.546875 13.007812 -21.78125 13.9375 -21.78125 C 14.863281 -21.78125 15.59375 -21.457031 16.125 -20.8125 C 16.664062 -20.175781 16.9375 -19.40625 16.9375 -18.5 C 16.9375 -17.664062 16.660156 -16.925781 16.109375 -16.28125 C 15.554688 -15.644531 14.785156 -15.328125 13.796875 -15.328125 C 13.160156 -15.328125 12.734375 -15.476562 12.515625 -15.78125 C 12.296875 -16.09375 12.128906 -16.535156 12.015625 -17.109375 C 11.929688 -17.492188 11.84375 -17.769531 11.75 -17.9375 C 11.664062 -18.113281 11.507812 -18.203125 11.28125 -18.203125 C 10.664062 -18.203125 10.144531 -18.078125 9.71875 -17.828125 C 9.300781 -17.585938 8.757812 -17.160156 8.09375 -16.546875 L 4.609375 0 L -1.65625 0 Z M 2.96875 -21.78125 "/></g></g></g><g fill="rgb(100%, 100%, 100%)" fill-opacity="1"><g transform="translate(228.543451, 42.056891)"><g><path d="M 7.265625 -24.125 C 6.304688 -24.125 5.492188 -24.457031 4.828125 -25.125 C 4.160156 -25.789062 3.828125 -26.601562 3.828125 -27.5625 C 3.828125 -28.519531 4.160156 -29.335938 4.828125 -30.015625 C 5.492188 -30.703125 6.304688 -31.046875 7.265625 -31.046875 C 8.222656 -31.046875 9.039062 -30.703125 9.71875 -30.015625 C 10.40625 -29.335938 10.75 -28.519531 10.75 -27.5625 C 10.75 -26.601562 10.40625 -25.789062 9.71875 -25.125 C 9.039062 -24.457031 8.222656 -24.125 7.265625 -24.125 Z M 4.3125 0.265625 C 2.914062 0.265625 1.789062 -0.164062 0.9375 -1.03125 C 0.0820312 -1.90625 -0.34375 -3.21875 -0.34375 -4.96875 C -0.34375 -5.6875 -0.226562 -6.628906 0 -7.796875 L 2.96875 -21.78125 L 9.234375 -21.78125 L 6.09375 -6.96875 C 5.976562 -6.53125 5.921875 -6.066406 5.921875 -5.578125 C 5.921875 -4.992188 6.054688 -4.578125 6.328125 -4.328125 C 6.609375 -4.085938 7.066406 -3.96875 7.703125 -3.96875 C 8.546875 -3.96875 9.328125 -4.320312 10.046875 -5.03125 C 10.773438 -5.738281 11.300781 -6.660156 11.625 -7.796875 L 13.453125 -7.796875 C 12.378906 -4.660156 11 -2.53125 9.3125 -1.40625 C 7.632812 -0.289062 5.96875 0.265625 4.3125 0.265625 Z M 4.3125 0.265625 "/></g></g></g><g fill="rgb(100%, 100%, 100%)" fill-opacity="1"><g transform="translate(240.168032, 42.056891)"><g><path d="M 15.71875 0.265625 C 13.945312 0.265625 12.644531 -0.203125 11.8125 -1.140625 C 10.988281 -2.085938 10.578125 -3.257812 10.578125 -4.65625 C 10.578125 -5.269531 10.648438 -5.957031 10.796875 -6.71875 C 10.941406 -7.488281 11.09375 -8.238281 11.25 -8.96875 C 11.414062 -9.695312 11.523438 -10.160156 11.578125 -10.359375 C 11.816406 -11.378906 12.035156 -12.378906 12.234375 -13.359375 C 12.441406 -14.347656 12.546875 -15.148438 12.546875 -15.765625 C 12.546875 -17.242188 12.019531 -17.984375 10.96875 -17.984375 C 10.21875 -17.984375 9.550781 -17.613281 8.96875 -16.875 C 8.382812 -16.132812 7.921875 -15.171875 7.578125 -13.984375 L 4.609375 0 L -1.65625 0 L 2.96875 -21.78125 L 9.234375 -21.78125 L 8.75 -19.515625 C 10.207031 -21.140625 11.90625 -21.953125 13.84375 -21.953125 C 15.320312 -21.953125 16.5 -21.546875 17.375 -20.734375 C 18.25 -19.921875 18.6875 -18.6875 18.6875 -17.03125 C 18.6875 -16.1875 18.582031 -15.25 18.375 -14.21875 C 18.175781 -13.1875 17.882812 -11.929688 17.5 -10.453125 C 17.269531 -9.546875 17.0625 -8.664062 16.875 -7.8125 C 16.6875 -6.957031 16.59375 -6.285156 16.59375 -5.796875 C 16.59375 -5.210938 16.722656 -4.757812 16.984375 -4.4375 C 17.242188 -4.125 17.691406 -3.96875 18.328125 -3.96875 C 19.203125 -3.96875 19.898438 -4.273438 20.421875 -4.890625 C 20.941406 -5.515625 21.460938 -6.484375 21.984375 -7.796875 L 23.8125 -7.796875 C 22.738281 -4.597656 21.5 -2.453125 20.09375 -1.359375 C 18.6875 -0.273438 17.226562 0.265625 15.71875 0.265625 Z M 15.71875 0.265625 "/></g></g></g><g fill="rgb(100%, 100%, 100%)" fill-opacity="1"><g transform="translate(262.154606, 42.056891)"><g><path d="M 7.703125 10.890625 C 6.316406 10.890625 5.15625 10.523438 4.21875 9.796875 C 3.289062 9.066406 2.828125 8.019531 2.828125 6.65625 C 2.828125 5.007812 3.492188 3.679688 4.828125 2.671875 C 6.171875 1.671875 7.867188 0.835938 9.921875 0.171875 L 10.453125 -2.140625 C 8.972656 -0.535156 7.226562 0.265625 5.21875 0.265625 C 3.570312 0.265625 2.195312 -0.300781 1.09375 -1.4375 C -0.0078125 -2.570312 -0.5625 -4.34375 -0.5625 -6.75 C -0.5625 -8.894531 -0.132812 -11.148438 0.71875 -13.515625 C 1.570312 -15.890625 2.847656 -17.894531 4.546875 -19.53125 C 6.242188 -21.164062 8.269531 -21.984375 10.625 -21.984375 C 11.8125 -21.984375 12.695312 -21.78125 13.28125 -21.375 C 13.863281 -20.96875 14.15625 -20.429688 14.15625 -19.765625 L 14.15625 -19.515625 L 14.625 -21.78125 L 20.90625 -21.78125 L 16.59375 -1.5625 C 17.988281 -2.03125 19.101562 -2.726562 19.9375 -3.65625 C 20.78125 -4.582031 21.492188 -5.960938 22.078125 -7.796875 L 23.90625 -7.796875 C 23.125 -5.210938 22.0625 -3.316406 20.71875 -2.109375 C 19.382812 -0.910156 17.878906 -0.09375 16.203125 0.34375 L 15.546875 3.484375 C 14.960938 6.296875 13.957031 8.234375 12.53125 9.296875 C 11.113281 10.359375 9.503906 10.890625 7.703125 10.890625 Z M 8.0625 -3.96875 C 8.726562 -3.96875 9.40625 -4.269531 10.09375 -4.875 C 10.789062 -5.488281 11.273438 -6.316406 11.546875 -7.359375 L 13.765625 -17.6875 C 13.765625 -18.03125 13.617188 -18.382812 13.328125 -18.75 C 13.035156 -19.113281 12.582031 -19.296875 11.96875 -19.296875 C 10.8125 -19.296875 9.769531 -18.617188 8.84375 -17.265625 C 7.914062 -15.910156 7.1875 -14.28125 6.65625 -12.375 C 6.132812 -10.476562 5.875 -8.804688 5.875 -7.359375 C 5.875 -5.910156 6.082031 -4.984375 6.5 -4.578125 C 6.925781 -4.171875 7.445312 -3.96875 8.0625 -3.96875 Z M 6.703125 7.484375 C 7.203125 7.484375 7.679688 7.148438 8.140625 6.484375 C 8.609375 5.816406 8.972656 4.859375 9.234375 3.609375 L 9.5 2.34375 C 6.644531 3.394531 5.21875 4.628906 5.21875 6.046875 C 5.21875 6.429688 5.347656 6.765625 5.609375 7.046875 C 5.878906 7.335938 6.242188 7.484375 6.703125 7.484375 Z M 6.703125 7.484375 "/></g></g></g><g fill="rgb(100%, 100%, 100%)" fill-opacity="1"><g transform="translate(93.346211, 65.396486)"><g><path d="M 0.90625 -8.25 L 2.59375 -8.25 L 2.59375 -4.84375 L 5.78125 -8.25 L 8 -8.25 L 4.625 -4.84375 L 8.171875 0 L 5.96875 0 L 3.421875 -3.59375 L 2.59375 -2.75 L 2.59375 0 L 0.90625 0 Z M 0.90625 -8.25 "/></g></g></g><g fill="rgb(100%, 100%, 100%)" fill-opacity="1"><g transform="translate(101.617336, 65.396486)"><g><path d="M 3.484375 -1.125 C 3.941406 -1.125 4.296875 -1.289062 4.546875 -1.625 C 4.796875 -1.957031 4.921875 -2.425781 4.921875 -3.03125 C 4.921875 -3.644531 4.796875 -4.113281 4.546875 -4.4375 C 4.296875 -4.769531 3.941406 -4.9375 3.484375 -4.9375 C 3.015625 -4.9375 2.65625 -4.769531 2.40625 -4.4375 C 2.15625 -4.113281 2.03125 -3.644531 2.03125 -3.03125 C 2.03125 -2.425781 2.15625 -1.957031 2.40625 -1.625 C 2.65625 -1.289062 3.015625 -1.125 3.484375 -1.125 Z M 6.59375 -3.03125 C 6.59375 -2.132812 6.335938 -1.367188 5.828125 -0.734375 C 5.316406 -0.0976562 4.535156 0.21875 3.484375 0.21875 C 2.429688 0.21875 1.648438 -0.0976562 1.140625 -0.734375 C 0.628906 -1.367188 0.375 -2.132812 0.375 -3.03125 C 0.375 -3.914062 0.628906 -4.679688 1.140625 -5.328125 C 1.648438 -5.972656 2.429688 -6.296875 3.484375 -6.296875 C 4.535156 -6.296875 5.316406 -5.972656 5.828125 -5.328125 C 6.335938 -4.679688 6.59375 -3.914062 6.59375 -3.03125 Z M 3.484375 -6.265625 Z M 3.484375 -6.265625 "/></g></g></g><g fill="rgb(100%, 100%, 100%)" fill-opacity="1"><g transform="translate(108.613399, 65.396486)"><g><path d="M 4.046875 -6.234375 C 4.078125 -6.234375 4.101562 -6.234375 4.125 -6.234375 C 4.144531 -6.234375 4.191406 -6.234375 4.265625 -6.234375 L 4.265625 -4.59375 C 4.160156 -4.601562 4.066406 -4.609375 3.984375 -4.609375 C 3.910156 -4.617188 3.851562 -4.625 3.8125 -4.625 C 3.164062 -4.625 2.734375 -4.414062 2.515625 -4 C 2.390625 -3.757812 2.328125 -3.394531 2.328125 -2.90625 L 2.328125 0 L 0.734375 0 L 0.734375 -6.09375 L 2.25 -6.09375 L 2.25 -5.03125 C 2.5 -5.4375 2.710938 -5.710938 2.890625 -5.859375 C 3.191406 -6.109375 3.578125 -6.234375 4.046875 -6.234375 Z M 4.046875 -6.234375 "/></g></g></g><g fill="rgb(100%, 100%, 100%)" fill-opacity="1"><g transform="translate(113.070523, 65.396486)"><g><path d="M 3.15625 -4.9375 C 2.78125 -4.9375 2.488281 -4.820312 2.28125 -4.59375 C 2.082031 -4.363281 1.957031 -4.050781 1.90625 -3.65625 L 4.390625 -3.65625 C 4.359375 -4.082031 4.226562 -4.398438 4 -4.609375 C 3.769531 -4.828125 3.488281 -4.9375 3.15625 -4.9375 Z M 3.15625 -6.265625 C 3.65625 -6.265625 4.109375 -6.164062 4.515625 -5.96875 C 4.921875 -5.78125 5.257812 -5.484375 5.53125 -5.078125 C 5.769531 -4.710938 5.921875 -4.289062 5.984375 -3.8125 C 6.023438 -3.53125 6.046875 -3.128906 6.046875 -2.609375 L 1.875 -2.609375 C 1.894531 -1.992188 2.082031 -1.5625 2.4375 -1.3125 C 2.664062 -1.164062 2.929688 -1.09375 3.234375 -1.09375 C 3.566406 -1.09375 3.832031 -1.1875 4.03125 -1.375 C 4.144531 -1.46875 4.242188 -1.609375 4.328125 -1.796875 L 5.96875 -1.796875 C 5.925781 -1.429688 5.734375 -1.0625 5.390625 -0.6875 C 4.867188 -0.09375 4.140625 0.203125 3.203125 0.203125 C 2.429688 0.203125 1.75 -0.046875 1.15625 -0.546875 C 0.5625 -1.046875 0.265625 -1.859375 0.265625 -2.984375 C 0.265625 -4.035156 0.53125 -4.84375 1.0625 -5.40625 C 1.601562 -5.976562 2.300781 -6.265625 3.15625 -6.265625 Z M 3.265625 -6.265625 Z M 3.265625 -6.265625 "/></g></g></g><g fill="rgb(100%, 100%, 100%)" fill-opacity="1"><g transform="translate(119.44024, 65.396486)"><g><path d="M 4.109375 -2.96875 C 4.003906 -2.90625 3.898438 -2.851562 3.796875 -2.8125 C 3.691406 -2.769531 3.550781 -2.734375 3.375 -2.703125 L 3.015625 -2.640625 C 2.679688 -2.578125 2.441406 -2.503906 2.296875 -2.421875 C 2.046875 -2.273438 1.921875 -2.046875 1.921875 -1.734375 C 1.921875 -1.460938 1.992188 -1.265625 2.140625 -1.140625 C 2.296875 -1.023438 2.484375 -0.96875 2.703125 -0.96875 C 3.046875 -0.96875 3.363281 -1.066406 3.65625 -1.265625 C 3.945312 -1.472656 4.097656 -1.84375 4.109375 -2.375 Z M 3.140625 -3.703125 C 3.429688 -3.742188 3.640625 -3.789062 3.765625 -3.84375 C 3.992188 -3.945312 4.109375 -4.097656 4.109375 -4.296875 C 4.109375 -4.546875 4.019531 -4.71875 3.84375 -4.8125 C 3.675781 -4.90625 3.425781 -4.953125 3.09375 -4.953125 C 2.707031 -4.953125 2.4375 -4.863281 2.28125 -4.6875 C 2.175781 -4.539062 2.101562 -4.351562 2.0625 -4.125 L 0.53125 -4.125 C 0.5625 -4.65625 0.707031 -5.09375 0.96875 -5.4375 C 1.394531 -5.96875 2.117188 -6.234375 3.140625 -6.234375 C 3.804688 -6.234375 4.398438 -6.101562 4.921875 -5.84375 C 5.441406 -5.582031 5.703125 -5.082031 5.703125 -4.34375 L 5.703125 -1.546875 C 5.703125 -1.359375 5.703125 -1.125 5.703125 -0.84375 C 5.722656 -0.632812 5.757812 -0.492188 5.8125 -0.421875 C 5.863281 -0.347656 5.941406 -0.285156 6.046875 -0.234375 L 6.046875 0 L 4.3125 0 C 4.257812 -0.125 4.222656 -0.238281 4.203125 -0.34375 C 4.179688 -0.457031 4.164062 -0.582031 4.15625 -0.71875 C 3.9375 -0.476562 3.6875 -0.273438 3.40625 -0.109375 C 3.0625 0.0859375 2.671875 0.1875 2.234375 0.1875 C 1.679688 0.1875 1.222656 0.03125 0.859375 -0.28125 C 0.503906 -0.59375 0.328125 -1.039062 0.328125 -1.625 C 0.328125 -2.375 0.617188 -2.914062 1.203125 -3.25 C 1.515625 -3.425781 1.976562 -3.554688 2.59375 -3.640625 Z M 3.21875 -6.265625 Z M 3.21875 -6.265625 "/></g></g></g><g fill="rgb(100%, 100%, 100%)" fill-opacity="1"><g transform="translate(125.809957, 65.396486)"><g><path d="M 4.125 -6.234375 C 4.75 -6.234375 5.257812 -6.066406 5.65625 -5.734375 C 6.0625 -5.410156 6.265625 -4.867188 6.265625 -4.109375 L 6.265625 0 L 4.640625 0 L 4.640625 -3.703125 C 4.640625 -4.023438 4.59375 -4.273438 4.5 -4.453125 C 4.34375 -4.765625 4.046875 -4.921875 3.609375 -4.921875 C 3.066406 -4.921875 2.695312 -4.691406 2.5 -4.234375 C 2.394531 -3.984375 2.34375 -3.671875 2.34375 -3.296875 L 2.34375 0 L 0.75 0 L 0.75 -6.078125 L 2.296875 -6.078125 L 2.296875 -5.1875 C 2.492188 -5.507812 2.6875 -5.738281 2.875 -5.875 C 3.195312 -6.113281 3.613281 -6.234375 4.125 -6.234375 Z M 3.53125 -6.265625 Z M 3.53125 -6.265625 "/></g></g></g><g fill="rgb(100%, 100%, 100%)" fill-opacity="1"><g transform="translate(132.806021, 65.396486)"><g/></g></g><g fill="rgb(100%, 100%, 100%)" fill-opacity="1"><g transform="translate(135.988083, 65.396486)"><g><path d="M 5.703125 -8.25 L 7.484375 -8.25 L 4.671875 0 L 3.046875 0 L 0.265625 -8.25 L 2.109375 -8.25 L 3.890625 -1.984375 Z M 5.703125 -8.25 "/></g></g></g><g fill="rgb(100%, 100%, 100%)" fill-opacity="1"><g transform="translate(143.62727, 65.396486)"><g><path d="M 4.109375 -2.96875 C 4.003906 -2.90625 3.898438 -2.851562 3.796875 -2.8125 C 3.691406 -2.769531 3.550781 -2.734375 3.375 -2.703125 L 3.015625 -2.640625 C 2.679688 -2.578125 2.441406 -2.503906 2.296875 -2.421875 C 2.046875 -2.273438 1.921875 -2.046875 1.921875 -1.734375 C 1.921875 -1.460938 1.992188 -1.265625 2.140625 -1.140625 C 2.296875 -1.023438 2.484375 -0.96875 2.703125 -0.96875 C 3.046875 -0.96875 3.363281 -1.066406 3.65625 -1.265625 C 3.945312 -1.472656 4.097656 -1.84375 4.109375 -2.375 Z M 3.140625 -3.703125 C 3.429688 -3.742188 3.640625 -3.789062 3.765625 -3.84375 C 3.992188 -3.945312 4.109375 -4.097656 4.109375 -4.296875 C 4.109375 -4.546875 4.019531 -4.71875 3.84375 -4.8125 C 3.675781 -4.90625 3.425781 -4.953125 3.09375 -4.953125 C 2.707031 -4.953125 2.4375 -4.863281 2.28125 -4.6875 C 2.175781 -4.539062 2.101562 -4.351562 2.0625 -4.125 L 0.53125 -4.125 C 0.5625 -4.65625 0.707031 -5.09375 0.96875 -5.4375 C 1.394531 -5.96875 2.117188 -6.234375 3.140625 -6.234375 C 3.804688 -6.234375 4.398438 -6.101562 4.921875 -5.84375 C 5.441406 -5.582031 5.703125 -5.082031 5.703125 -4.34375 L 5.703125 -1.546875 C 5.703125 -1.359375 5.703125 -1.125 5.703125 -0.84375 C 5.722656 -0.632812 5.757812 -0.492188 5.8125 -0.421875 C 5.863281 -0.347656 5.941406 -0.285156 6.046875 -0.234375 L 6.046875 0 L 4.3125 0 C 4.257812 -0.125 4.222656 -0.238281 4.203125 -0.34375 C 4.179688 -0.457031 4.164062 -0.582031 4.15625 -0.71875 C 3.9375 -0.476562 3.6875 -0.273438 3.40625 -0.109375 C 3.0625 0.0859375 2.671875 0.1875 2.234375 0.1875 C 1.679688 0.1875 1.222656 0.03125 0.859375 -0.28125 C 0.503906 -0.59375 0.328125 -1.039062 0.328125 -1.625 C 0.328125 -2.375 0.617188 -2.914062 1.203125 -3.25 C 1.515625 -3.425781 1.976562 -3.554688 2.59375 -3.640625 Z M 3.21875 -6.265625 Z M 3.21875 -6.265625 "/></g></g></g><g fill="rgb(100%, 100%, 100%)" fill-opacity="1"><g transform="translate(149.996987, 65.396486)"><g><path d="M 4.046875 -6.234375 C 4.078125 -6.234375 4.101562 -6.234375 4.125 -6.234375 C 4.144531 -6.234375 4.191406 -6.234375 4.265625 -6.234375 L 4.265625 -4.59375 C 4.160156 -4.601562 4.066406 -4.609375 3.984375 -4.609375 C 3.910156 -4.617188 3.851562 -4.625 3.8125 -4.625 C 3.164062 -4.625 2.734375 -4.414062 2.515625 -4 C 2.390625 -3.757812 2.328125 -3.394531 2.328125 -2.90625 L 2.328125 0 L 0.734375 0 L 0.734375 -6.09375 L 2.25 -6.09375 L 2.25 -5.03125 C 2.5 -5.4375 2.710938 -5.710938 2.890625 -5.859375 C 3.191406 -6.109375 3.578125 -6.234375 4.046875 -6.234375 Z M 4.046875 -6.234375 "/></g></g></g><g fill="rgb(100%, 100%, 100%)" fill-opacity="1"><g transform="translate(154.454111, 65.396486)"><g><path d="M 2.375 -6.828125 L 0.765625 -6.828125 L 0.765625 -8.296875 L 2.375 -8.296875 Z M 0.765625 -6.09375 L 2.375 -6.09375 L 2.375 0 L 0.765625 0 Z M 0.765625 -6.09375 "/></g></g></g><g fill="rgb(100%, 100%, 100%)" fill-opacity="1"><g transform="translate(157.636173, 65.396486)"><g><path d="M 3.15625 -4.9375 C 2.78125 -4.9375 2.488281 -4.820312 2.28125 -4.59375 C 2.082031 -4.363281 1.957031 -4.050781 1.90625 -3.65625 L 4.390625 -3.65625 C 4.359375 -4.082031 4.226562 -4.398438 4 -4.609375 C 3.769531 -4.828125 3.488281 -4.9375 3.15625 -4.9375 Z M 3.15625 -6.265625 C 3.65625 -6.265625 4.109375 -6.164062 4.515625 -5.96875 C 4.921875 -5.78125 5.257812 -5.484375 5.53125 -5.078125 C 5.769531 -4.710938 5.921875 -4.289062 5.984375 -3.8125 C 6.023438 -3.53125 6.046875 -3.128906 6.046875 -2.609375 L 1.875 -2.609375 C 1.894531 -1.992188 2.082031 -1.5625 2.4375 -1.3125 C 2.664062 -1.164062 2.929688 -1.09375 3.234375 -1.09375 C 3.566406 -1.09375 3.832031 -1.1875 4.03125 -1.375 C 4.144531 -1.46875 4.242188 -1.609375 4.328125 -1.796875 L 5.96875 -1.796875 C 5.925781 -1.429688 5.734375 -1.0625 5.390625 -0.6875 C 4.867188 -0.09375 4.140625 0.203125 3.203125 0.203125 C 2.429688 0.203125 1.75 -0.046875 1.15625 -0.546875 C 0.5625 -1.046875 0.265625 -1.859375 0.265625 -2.984375 C 0.265625 -4.035156 0.53125 -4.84375 1.0625 -5.40625 C 1.601562 -5.976562 2.300781 -6.265625 3.15625 -6.265625 Z M 3.265625 -6.265625 Z M 3.265625 -6.265625 "/></g></g></g><g fill="rgb(100%, 100%, 100%)" fill-opacity="1"><g transform="translate(164.00589, 65.396486)"><g><path d="M 0.125 -4.90625 L 0.125 -6.046875 L 0.96875 -6.046875 L 0.96875 -7.734375 L 2.546875 -7.734375 L 2.546875 -6.046875 L 3.53125 -6.046875 L 3.53125 -4.90625 L 2.546875 -4.90625 L 2.546875 -1.6875 C 2.546875 -1.4375 2.578125 -1.28125 2.640625 -1.21875 C 2.703125 -1.15625 2.894531 -1.125 3.21875 -1.125 C 3.269531 -1.125 3.320312 -1.125 3.375 -1.125 C 3.425781 -1.125 3.476562 -1.128906 3.53125 -1.140625 L 3.53125 0.0625 L 2.78125 0.078125 C 2.03125 0.109375 1.515625 -0.0195312 1.234375 -0.3125 C 1.054688 -0.488281 0.96875 -0.769531 0.96875 -1.15625 L 0.96875 -4.90625 Z M 0.125 -4.90625 "/></g></g></g><g fill="rgb(100%, 100%, 100%)" fill-opacity="1"><g transform="translate(167.819891, 65.396486)"><g><path d="M 0.984375 1.171875 L 1.1875 1.1875 C 1.34375 1.1875 1.488281 1.175781 1.625 1.15625 C 1.769531 1.144531 1.894531 1.101562 2 1.03125 C 2.09375 0.96875 2.175781 0.832031 2.25 0.625 C 2.332031 0.425781 2.367188 0.304688 2.359375 0.265625 L 0.125 -6.09375 L 1.890625 -6.09375 L 3.21875 -1.59375 L 4.484375 -6.09375 L 6.171875 -6.09375 L 4.078125 -0.09375 C 3.679688 1.0625 3.363281 1.773438 3.125 2.046875 C 2.894531 2.328125 2.425781 2.46875 1.71875 2.46875 C 1.570312 2.46875 1.457031 2.460938 1.375 2.453125 C 1.289062 2.453125 1.160156 2.445312 0.984375 2.4375 Z M 3.15625 -6.265625 Z M 3.15625 -6.265625 "/></g></g></g><g fill="rgb(100%, 100%, 100%)" fill-opacity="1"><g transform="translate(174.189608, 65.396486)"><g/></g></g><g fill="rgb(100%, 100%, 100%)" fill-opacity="1"><g transform="translate(177.371671, 65.396486)"><g><path d="M 2.125 -2.546875 C 2.175781 -2.171875 2.273438 -1.890625 2.421875 -1.703125 C 2.703125 -1.359375 3.179688 -1.1875 3.859375 -1.1875 C 4.265625 -1.1875 4.597656 -1.234375 4.859375 -1.328125 C 5.335938 -1.492188 5.578125 -1.8125 5.578125 -2.28125 C 5.578125 -2.550781 5.457031 -2.757812 5.21875 -2.90625 C 4.976562 -3.050781 4.601562 -3.179688 4.09375 -3.296875 L 3.21875 -3.5 C 2.363281 -3.6875 1.769531 -3.894531 1.4375 -4.125 C 0.882812 -4.507812 0.609375 -5.101562 0.609375 -5.90625 C 0.609375 -6.644531 0.875 -7.257812 1.40625 -7.75 C 1.945312 -8.238281 2.738281 -8.484375 3.78125 -8.484375 C 4.644531 -8.484375 5.382812 -8.253906 6 -7.796875 C 6.613281 -7.335938 6.9375 -6.664062 6.96875 -5.78125 L 5.3125 -5.78125 C 5.28125 -6.28125 5.0625 -6.632812 4.65625 -6.84375 C 4.394531 -6.976562 4.0625 -7.046875 3.65625 -7.046875 C 3.21875 -7.046875 2.863281 -6.957031 2.59375 -6.78125 C 2.332031 -6.601562 2.203125 -6.351562 2.203125 -6.03125 C 2.203125 -5.738281 2.332031 -5.519531 2.59375 -5.375 C 2.757812 -5.28125 3.117188 -5.164062 3.671875 -5.03125 L 5.09375 -4.6875 C 5.707031 -4.539062 6.175781 -4.34375 6.5 -4.09375 C 6.988281 -3.707031 7.234375 -3.144531 7.234375 -2.40625 C 7.234375 -1.65625 6.945312 -1.03125 6.375 -0.53125 C 5.800781 -0.03125 4.988281 0.21875 3.9375 0.21875 C 2.863281 0.21875 2.015625 -0.0234375 1.390625 -0.515625 C 0.773438 -1.015625 0.46875 -1.691406 0.46875 -2.546875 Z M 3.796875 -8.5 Z M 3.796875 -8.5 "/></g></g></g><g fill="rgb(100%, 100%, 100%)" fill-opacity="1"><g transform="translate(185.010857, 65.396486)"><g><path d="M 0.125 -4.90625 L 0.125 -6.046875 L 0.96875 -6.046875 L 0.96875 -7.734375 L 2.546875 -7.734375 L 2.546875 -6.046875 L 3.53125 -6.046875 L 3.53125 -4.90625 L 2.546875 -4.90625 L 2.546875 -1.6875 C 2.546875 -1.4375 2.578125 -1.28125 2.640625 -1.21875 C 2.703125 -1.15625 2.894531 -1.125 3.21875 -1.125 C 3.269531 -1.125 3.320312 -1.125 3.375 -1.125 C 3.425781 -1.125 3.476562 -1.128906 3.53125 -1.140625 L 3.53125 0.0625 L 2.78125 0.078125 C 2.03125 0.109375 1.515625 -0.0195312 1.234375 -0.3125 C 1.054688 -0.488281 0.96875 -0.769531 0.96875 -1.15625 L 0.96875 -4.90625 Z M 0.125 -4.90625 "/></g></g></g><g fill="rgb(100%, 100%, 100%)" fill-opacity="1"><g transform="translate(188.824858, 65.396486)"><g><path d="M 3.484375 -1.125 C 3.941406 -1.125 4.296875 -1.289062 4.546875 -1.625 C 4.796875 -1.957031 4.921875 -2.425781 4.921875 -3.03125 C 4.921875 -3.644531 4.796875 -4.113281 4.546875 -4.4375 C 4.296875 -4.769531 3.941406 -4.9375 3.484375 -4.9375 C 3.015625 -4.9375 2.65625 -4.769531 2.40625 -4.4375 C 2.15625 -4.113281 2.03125 -3.644531 2.03125 -3.03125 C 2.03125 -2.425781 2.15625 -1.957031 2.40625 -1.625 C 2.65625 -1.289062 3.015625 -1.125 3.484375 -1.125 Z M 6.59375 -3.03125 C 6.59375 -2.132812 6.335938 -1.367188 5.828125 -0.734375 C 5.316406 -0.0976562 4.535156 0.21875 3.484375 0.21875 C 2.429688 0.21875 1.648438 -0.0976562 1.140625 -0.734375 C 0.628906 -1.367188 0.375 -2.132812 0.375 -3.03125 C 0.375 -3.914062 0.628906 -4.679688 1.140625 -5.328125 C 1.648438 -5.972656 2.429688 -6.296875 3.484375 -6.296875 C 4.535156 -6.296875 5.316406 -5.972656 5.828125 -5.328125 C 6.335938 -4.679688 6.59375 -3.914062 6.59375 -3.03125 Z M 3.484375 -6.265625 Z M 3.484375 -6.265625 "/></g></g></g><g fill="rgb(100%, 100%, 100%)" fill-opacity="1"><g transform="translate(195.820921, 65.396486)"><g><path d="M 4.046875 -6.234375 C 4.078125 -6.234375 4.101562 -6.234375 4.125 -6.234375 C 4.144531 -6.234375 4.191406 -6.234375 4.265625 -6.234375 L 4.265625 -4.59375 C 4.160156 -4.601562 4.066406 -4.609375 3.984375 -4.609375 C 3.910156 -4.617188 3.851562 -4.625 3.8125 -4.625 C 3.164062 -4.625 2.734375 -4.414062 2.515625 -4 C 2.390625 -3.757812 2.328125 -3.394531 2.328125 -2.90625 L 2.328125 0 L 0.734375 0 L 0.734375 -6.09375 L 2.25 -6.09375 L 2.25 -5.03125 C 2.5 -5.4375 2.710938 -5.710938 2.890625 -5.859375 C 3.191406 -6.109375 3.578125 -6.234375 4.046875 -6.234375 Z M 4.046875 -6.234375 "/></g></g></g><g fill="rgb(100%, 100%, 100%)" fill-opacity="1"><g transform="translate(200.278045, 65.396486)"><g><path d="M 3.15625 -4.9375 C 2.78125 -4.9375 2.488281 -4.820312 2.28125 -4.59375 C 2.082031 -4.363281 1.957031 -4.050781 1.90625 -3.65625 L 4.390625 -3.65625 C 4.359375 -4.082031 4.226562 -4.398438 4 -4.609375 C 3.769531 -4.828125 3.488281 -4.9375 3.15625 -4.9375 Z M 3.15625 -6.265625 C 3.65625 -6.265625 4.109375 -6.164062 4.515625 -5.96875 C 4.921875 -5.78125 5.257812 -5.484375 5.53125 -5.078125 C 5.769531 -4.710938 5.921875 -4.289062 5.984375 -3.8125 C 6.023438 -3.53125 6.046875 -3.128906 6.046875 -2.609375 L 1.875 -2.609375 C 1.894531 -1.992188 2.082031 -1.5625 2.4375 -1.3125 C 2.664062 -1.164062 2.929688 -1.09375 3.234375 -1.09375 C 3.566406 -1.09375 3.832031 -1.1875 4.03125 -1.375 C 4.144531 -1.46875 4.242188 -1.609375 4.328125 -1.796875 L 5.96875 -1.796875 C 5.925781 -1.429688 5.734375 -1.0625 5.390625 -0.6875 C 4.867188 -0.09375 4.140625 0.203125 3.203125 0.203125 C 2.429688 0.203125 1.75 -0.046875 1.15625 -0.546875 C 0.5625 -1.046875 0.265625 -1.859375 0.265625 -2.984375 C 0.265625 -4.035156 0.53125 -4.84375 1.0625 -5.40625 C 1.601562 -5.976562 2.300781 -6.265625 3.15625 -6.265625 Z M 3.265625 -6.265625 Z M 3.265625 -6.265625 "/></g></g></g></svg>