<svg xmlns="http://www.w3.org/2000/svg" xmlns:xlink="http://www.w3.org/1999/xlink" width="500" zoomAndPan="magnify" viewBox="0 0 375 374.999991" height="500" preserveAspectRatio="xMidYMid meet" version="1.0"><defs><g/></defs><g fill="rgb(100%, 100%, 100%)" fill-opacity="1"><g transform="translate(70.371093, 179.299997)"><g><path d="M 12.203125 -26.109375 C 10.273438 -25.472656 8.785156 -24.425781 7.734375 -22.96875 C 6.679688 -21.507812 6.15625 -19.707031 6.15625 -17.5625 C 6.15625 -16.59375 6.242188 -15.929688 6.421875 -15.578125 C 6.597656 -15.222656 6.6875 -15.007812 6.6875 -14.9375 C 3.976562 -14.9375 2.625 -16.085938 2.625 -18.390625 C 2.625 -19.960938 3.222656 -21.539062 4.421875 -23.125 C 5.628906 -24.707031 7.175781 -26 9.0625 -27 C 10.945312 -28 12.828125 -28.5 14.703125 -28.5 C 15.640625 -28.5 16.601562 -28.320312 17.59375 -27.96875 L 16.71875 -7.9375 L 25.078125 -27.96875 L 30.546875 -27.96875 L 26.5625 0 L 21.09375 0 L 23.515625 -17.0625 L 16.375 0 L 11.171875 0 L 11.9375 -17.140625 L 5.59375 0 L 2.546875 0 Z M 12.203125 -26.109375 "/></g></g></g><g fill="rgb(100%, 100%, 100%)" fill-opacity="1"><g transform="translate(100.270978, 179.299997)"><g><path d="M 5.546875 0.15625 C 3.671875 0.15625 2.1875 -0.320312 1.09375 -1.28125 C 0.0078125 -2.25 -0.53125 -3.773438 -0.53125 -5.859375 C -0.53125 -7.578125 -0.175781 -9.488281 0.53125 -11.59375 C 1.238281 -13.695312 2.378906 -15.515625 3.953125 -17.046875 C 5.523438 -18.578125 7.5 -19.34375 9.875 -19.34375 C 13.125 -19.34375 14.75 -17.316406 14.75 -13.265625 L 14.75 -13.21875 C 14.820312 -13.195312 14.957031 -13.1875 15.15625 -13.1875 C 16 -13.1875 16.960938 -13.40625 18.046875 -13.84375 C 19.140625 -14.289062 20.128906 -14.832031 21.015625 -15.46875 L 21.359375 -14.4375 C 20.617188 -13.65625 19.660156 -12.988281 18.484375 -12.4375 C 17.304688 -11.894531 16.019531 -11.507812 14.625 -11.28125 C 14.425781 -8.976562 13.90625 -6.960938 13.0625 -5.234375 C 12.226562 -3.515625 11.148438 -2.1875 9.828125 -1.25 C 8.515625 -0.3125 7.085938 0.15625 5.546875 0.15625 Z M 7.0625 -3.265625 C 7.675781 -3.265625 8.285156 -3.613281 8.890625 -4.3125 C 9.492188 -5.007812 10.023438 -5.957031 10.484375 -7.15625 C 10.941406 -8.363281 11.269531 -9.703125 11.46875 -11.171875 C 10.789062 -11.328125 10.453125 -11.859375 10.453125 -12.765625 C 10.453125 -13.804688 10.84375 -14.488281 11.625 -14.8125 C 11.570312 -15.65625 11.441406 -16.234375 11.234375 -16.546875 C 11.035156 -16.867188 10.6875 -17.03125 10.1875 -17.03125 C 9.351562 -17.03125 8.539062 -16.421875 7.75 -15.203125 C 6.96875 -13.984375 6.332031 -12.523438 5.84375 -10.828125 C 5.363281 -9.128906 5.125 -7.632812 5.125 -6.34375 C 5.125 -5.125 5.265625 -4.304688 5.546875 -3.890625 C 5.828125 -3.472656 6.332031 -3.265625 7.0625 -3.265625 Z M 7.0625 -3.265625 "/></g></g></g><g fill="rgb(100%, 100%, 100%)" fill-opacity="1"><g transform="translate(116.949574, 179.299997)"><g><path d="M 23.109375 0.234375 C 21.554688 0.234375 20.421875 -0.175781 19.703125 -1 C 18.984375 -1.820312 18.625 -2.84375 18.625 -4.0625 C 18.625 -4.59375 18.6875 -5.191406 18.8125 -5.859375 C 18.9375 -6.535156 19.066406 -7.191406 19.203125 -7.828125 C 19.347656 -8.460938 19.445312 -8.867188 19.5 -9.046875 C 19.695312 -9.929688 19.882812 -10.800781 20.0625 -11.65625 C 20.238281 -12.519531 20.328125 -13.21875 20.328125 -13.75 C 20.328125 -15.039062 19.875 -15.6875 18.96875 -15.6875 C 18.300781 -15.6875 17.710938 -15.363281 17.203125 -14.71875 C 16.703125 -14.070312 16.300781 -13.234375 16 -12.203125 L 13.40625 0 L 7.9375 0 L 10.71875 -13.109375 C 10.789062 -13.410156 10.828125 -13.726562 10.828125 -14.0625 C 10.828125 -15.175781 10.445312 -15.734375 9.6875 -15.734375 C 8.976562 -15.734375 8.363281 -15.410156 7.84375 -14.765625 C 7.320312 -14.117188 6.910156 -13.265625 6.609375 -12.203125 L 4.03125 0 L -1.4375 0 L 2.578125 -19 L 8.0625 -19 L 7.640625 -17.03125 C 8.929688 -18.46875 10.476562 -19.1875 12.28125 -19.1875 C 14.507812 -19.1875 15.8125 -18.097656 16.1875 -15.921875 C 17.582031 -18.078125 19.34375 -19.15625 21.46875 -19.15625 C 22.757812 -19.15625 23.785156 -18.800781 24.546875 -18.09375 C 25.304688 -17.382812 25.6875 -16.304688 25.6875 -14.859375 C 25.6875 -14.117188 25.597656 -13.300781 25.421875 -12.40625 C 25.242188 -11.507812 24.988281 -10.414062 24.65625 -9.125 C 24.457031 -8.332031 24.273438 -7.5625 24.109375 -6.8125 C 23.941406 -6.070312 23.859375 -5.484375 23.859375 -5.046875 C 23.859375 -4.546875 23.972656 -4.15625 24.203125 -3.875 C 24.429688 -3.59375 24.828125 -3.453125 25.390625 -3.453125 C 26.148438 -3.453125 26.753906 -3.722656 27.203125 -4.265625 C 27.660156 -4.816406 28.117188 -5.660156 28.578125 -6.796875 L 30.171875 -6.796875 C 29.234375 -4.015625 28.148438 -2.144531 26.921875 -1.1875 C 25.691406 -0.238281 24.421875 0.234375 23.109375 0.234375 Z M 23.109375 0.234375 "/></g></g></g><g fill="rgb(100%, 100%, 100%)" fill-opacity="1"><g transform="translate(145.519736, 179.299997)"><g><path d="M 23.109375 0.234375 C 21.554688 0.234375 20.421875 -0.175781 19.703125 -1 C 18.984375 -1.820312 18.625 -2.84375 18.625 -4.0625 C 18.625 -4.59375 18.6875 -5.191406 18.8125 -5.859375 C 18.9375 -6.535156 19.066406 -7.191406 19.203125 -7.828125 C 19.347656 -8.460938 19.445312 -8.867188 19.5 -9.046875 C 19.695312 -9.929688 19.882812 -10.800781 20.0625 -11.65625 C 20.238281 -12.519531 20.328125 -13.21875 20.328125 -13.75 C 20.328125 -15.039062 19.875 -15.6875 18.96875 -15.6875 C 18.300781 -15.6875 17.710938 -15.363281 17.203125 -14.71875 C 16.703125 -14.070312 16.300781 -13.234375 16 -12.203125 L 13.40625 0 L 7.9375 0 L 10.71875 -13.109375 C 10.789062 -13.410156 10.828125 -13.726562 10.828125 -14.0625 C 10.828125 -15.175781 10.445312 -15.734375 9.6875 -15.734375 C 8.976562 -15.734375 8.363281 -15.410156 7.84375 -14.765625 C 7.320312 -14.117188 6.910156 -13.265625 6.609375 -12.203125 L 4.03125 0 L -1.4375 0 L 2.578125 -19 L 8.0625 -19 L 7.640625 -17.03125 C 8.929688 -18.46875 10.476562 -19.1875 12.28125 -19.1875 C 14.507812 -19.1875 15.8125 -18.097656 16.1875 -15.921875 C 17.582031 -18.078125 19.34375 -19.15625 21.46875 -19.15625 C 22.757812 -19.15625 23.785156 -18.800781 24.546875 -18.09375 C 25.304688 -17.382812 25.6875 -16.304688 25.6875 -14.859375 C 25.6875 -14.117188 25.597656 -13.300781 25.421875 -12.40625 C 25.242188 -11.507812 24.988281 -10.414062 24.65625 -9.125 C 24.457031 -8.332031 24.273438 -7.5625 24.109375 -6.8125 C 23.941406 -6.070312 23.859375 -5.484375 23.859375 -5.046875 C 23.859375 -4.546875 23.972656 -4.15625 24.203125 -3.875 C 24.429688 -3.59375 24.828125 -3.453125 25.390625 -3.453125 C 26.148438 -3.453125 26.753906 -3.722656 27.203125 -4.265625 C 27.660156 -4.816406 28.117188 -5.660156 28.578125 -6.796875 L 30.171875 -6.796875 C 29.234375 -4.015625 28.148438 -2.144531 26.921875 -1.1875 C 25.691406 -0.238281 24.421875 0.234375 23.109375 0.234375 Z M 23.109375 0.234375 "/></g></g></g><g fill="rgb(100%, 100%, 100%)" fill-opacity="1"><g transform="translate(174.089898, 179.299997)"><g><path d="M 5.921875 9.5 C 4.710938 9.5 3.703125 9.179688 2.890625 8.546875 C 2.078125 7.910156 1.671875 7 1.671875 5.8125 C 1.671875 4.363281 2.253906 3.203125 3.421875 2.328125 C 4.585938 1.460938 6.066406 0.738281 7.859375 0.15625 L 8.328125 -1.90625 C 7.585938 -1.09375 6.835938 -0.53125 6.078125 -0.21875 C 5.316406 0.0820312 4.546875 0.234375 3.765625 0.234375 C 2.546875 0.234375 1.5625 -0.144531 0.8125 -0.90625 C 0.0703125 -1.664062 -0.296875 -2.804688 -0.296875 -4.328125 C -0.296875 -4.960938 -0.195312 -5.785156 0 -6.796875 L 2.578125 -19 L 8.0625 -19 L 5.3125 -6.078125 C 5.238281 -5.773438 5.203125 -5.457031 5.203125 -5.125 C 5.203125 -4.007812 5.582031 -3.453125 6.34375 -3.453125 C 7 -3.453125 7.582031 -3.738281 8.09375 -4.3125 C 8.601562 -4.882812 9.007812 -5.640625 9.3125 -6.578125 L 11.96875 -19 L 17.4375 -19 L 13.6875 -1.375 C 14.894531 -1.769531 15.863281 -2.375 16.59375 -3.1875 C 17.332031 -4 17.957031 -5.203125 18.46875 -6.796875 L 20.0625 -6.796875 C 19.375 -4.546875 18.445312 -2.894531 17.28125 -1.84375 C 16.125 -0.789062 14.8125 -0.078125 13.34375 0.296875 L 12.765625 3.046875 C 12.265625 5.492188 11.390625 7.179688 10.140625 8.109375 C 8.898438 9.035156 7.492188 9.5 5.921875 9.5 Z M 5.046875 6.53125 C 5.484375 6.53125 5.90625 6.238281 6.3125 5.65625 C 6.71875 5.070312 7.035156 4.238281 7.265625 3.15625 L 7.484375 2.046875 C 5.003906 2.960938 3.765625 4.039062 3.765625 5.28125 C 3.765625 5.613281 3.878906 5.90625 4.109375 6.15625 C 4.335938 6.40625 4.648438 6.53125 5.046875 6.53125 Z M 5.046875 6.53125 "/></g></g></g><g fill="rgb(100%, 100%, 100%)" fill-opacity="1"><g transform="translate(192.554127, 179.299997)"><g/></g></g><g fill="rgb(100%, 100%, 100%)" fill-opacity="1"><g transform="translate(200.798438, 179.299997)"><g><path d="M 8.734375 -24.171875 L 14.359375 -24.921875 L 11.671875 -12.234375 C 12.878906 -12.335938 13.992188 -12.867188 15.015625 -13.828125 C 16.046875 -14.796875 16.851562 -15.988281 17.4375 -17.40625 C 18.019531 -18.820312 18.3125 -20.210938 18.3125 -21.578125 C 18.3125 -23.097656 17.914062 -24.335938 17.125 -25.296875 C 16.34375 -26.265625 15.171875 -26.75 13.609375 -26.75 C 10.515625 -26.75 8.097656 -25.9375 6.359375 -24.3125 C 4.628906 -22.695312 3.765625 -20.429688 3.765625 -17.515625 C 3.765625 -16.578125 3.851562 -15.925781 4.03125 -15.5625 C 4.207031 -15.195312 4.296875 -14.988281 4.296875 -14.9375 C 2.921875 -14.9375 1.898438 -15.21875 1.234375 -15.78125 C 0.566406 -16.351562 0.234375 -17.300781 0.234375 -18.625 C 0.234375 -20.238281 0.894531 -21.8125 2.21875 -23.34375 C 3.550781 -24.882812 5.253906 -26.128906 7.328125 -27.078125 C 9.410156 -28.023438 11.488281 -28.5 13.5625 -28.5 C 15.5625 -28.5 17.234375 -28.15625 18.578125 -27.46875 C 19.921875 -26.789062 20.914062 -25.882812 21.5625 -24.75 C 22.207031 -23.625 22.53125 -22.378906 22.53125 -21.015625 C 22.53125 -19.367188 22.082031 -17.757812 21.1875 -16.1875 C 20.289062 -14.613281 19.003906 -13.328125 17.328125 -12.328125 C 15.648438 -11.328125 13.722656 -10.828125 11.546875 -10.828125 L 11.359375 -10.828125 L 9.046875 0 L 3.578125 0 Z M 8.734375 -24.171875 "/></g></g></g><g fill="rgb(100%, 100%, 100%)" fill-opacity="1"><g transform="translate(222.567995, 179.299997)"><g><path d="M 3.765625 0.234375 C 2.546875 0.234375 1.5625 -0.144531 0.8125 -0.90625 C 0.0703125 -1.664062 -0.296875 -2.804688 -0.296875 -4.328125 C -0.296875 -4.960938 -0.195312 -5.785156 0 -6.796875 L 2.578125 -19 L 8.0625 -19 L 5.3125 -6.078125 C 5.238281 -5.703125 5.203125 -5.347656 5.203125 -5.015625 C 5.203125 -3.972656 5.582031 -3.453125 6.34375 -3.453125 C 7.050781 -3.453125 7.660156 -3.75 8.171875 -4.34375 C 8.679688 -4.945312 9.085938 -5.765625 9.390625 -6.796875 L 11.96875 -19 L 17.4375 -19 L 14.703125 -6.078125 C 14.597656 -5.703125 14.546875 -5.296875 14.546875 -4.859375 C 14.546875 -4.359375 14.664062 -4 14.90625 -3.78125 C 15.15625 -3.5625 15.554688 -3.453125 16.109375 -3.453125 C 16.816406 -3.453125 17.429688 -3.753906 17.953125 -4.359375 C 18.472656 -4.972656 18.882812 -5.785156 19.1875 -6.796875 L 20.78125 -6.796875 C 19.84375 -4.066406 18.679688 -2.210938 17.296875 -1.234375 C 15.921875 -0.253906 14.535156 0.234375 13.140625 0.234375 C 12.054688 0.234375 11.191406 -0.0664062 10.546875 -0.671875 C 9.898438 -1.285156 9.515625 -2.1875 9.390625 -3.375 C 8.523438 -1.988281 7.617188 -1.039062 6.671875 -0.53125 C 5.722656 -0.0195312 4.753906 0.234375 3.765625 0.234375 Z M 3.765625 0.234375 "/></g></g></g><g fill="rgb(100%, 100%, 100%)" fill-opacity="1"><g transform="translate(241.75407, 179.299997)"><g><path d="M 2.578125 -19 L 8.0625 -19 L 7.5625 -16.640625 C 8.425781 -17.398438 9.203125 -17.984375 9.890625 -18.390625 C 10.585938 -18.796875 11.34375 -19 12.15625 -19 C 12.96875 -19 13.609375 -18.71875 14.078125 -18.15625 C 14.546875 -17.601562 14.78125 -16.9375 14.78125 -16.15625 C 14.78125 -15.414062 14.539062 -14.765625 14.0625 -14.203125 C 13.582031 -13.648438 12.910156 -13.375 12.046875 -13.375 C 11.484375 -13.375 11.109375 -13.503906 10.921875 -13.765625 C 10.734375 -14.035156 10.585938 -14.425781 10.484375 -14.9375 C 10.410156 -15.257812 10.332031 -15.5 10.25 -15.65625 C 10.175781 -15.8125 10.039062 -15.890625 9.84375 -15.890625 C 9.3125 -15.890625 8.859375 -15.78125 8.484375 -15.5625 C 8.117188 -15.34375 7.644531 -14.96875 7.0625 -14.4375 L 4.03125 0 L -1.4375 0 Z M 2.578125 -19 "/></g></g></g><g fill="rgb(100%, 100%, 100%)" fill-opacity="1"><g transform="translate(256.039157, 179.299997)"><g><path d="M 6.34375 -21.046875 C 5.507812 -21.046875 4.800781 -21.335938 4.21875 -21.921875 C 3.632812 -22.503906 3.34375 -23.210938 3.34375 -24.046875 C 3.34375 -24.890625 3.632812 -25.609375 4.21875 -26.203125 C 4.800781 -26.796875 5.507812 -27.09375 6.34375 -27.09375 C 7.175781 -27.09375 7.890625 -26.796875 8.484375 -26.203125 C 9.085938 -25.609375 9.390625 -24.890625 9.390625 -24.046875 C 9.390625 -23.210938 9.085938 -22.503906 8.484375 -21.921875 C 7.890625 -21.335938 7.175781 -21.046875 6.34375 -21.046875 Z M 3.765625 0.234375 C 2.546875 0.234375 1.5625 -0.144531 0.8125 -0.90625 C 0.0703125 -1.664062 -0.296875 -2.804688 -0.296875 -4.328125 C -0.296875 -4.960938 -0.195312 -5.785156 0 -6.796875 L 2.578125 -19 L 8.0625 -19 L 5.3125 -6.078125 C 5.21875 -5.703125 5.171875 -5.296875 5.171875 -4.859375 C 5.171875 -4.359375 5.289062 -4 5.53125 -3.78125 C 5.769531 -3.5625 6.164062 -3.453125 6.71875 -3.453125 C 7.457031 -3.453125 8.144531 -3.757812 8.78125 -4.375 C 9.414062 -5 9.867188 -5.804688 10.140625 -6.796875 L 11.734375 -6.796875 C 10.804688 -4.066406 9.601562 -2.210938 8.125 -1.234375 C 6.65625 -0.253906 5.203125 0.234375 3.765625 0.234375 Z M 3.765625 0.234375 "/></g></g></g><g fill="rgb(100%, 100%, 100%)" fill-opacity="1"><g transform="translate(266.183084, 179.299997)"><g><path d="M 13.71875 0.234375 C 12.175781 0.234375 11.039062 -0.175781 10.3125 -1 C 9.59375 -1.820312 9.234375 -2.84375 9.234375 -4.0625 C 9.234375 -4.59375 9.296875 -5.191406 9.421875 -5.859375 C 9.546875 -6.535156 9.675781 -7.191406 9.8125 -7.828125 C 9.957031 -8.460938 10.054688 -8.867188 10.109375 -9.046875 C 10.304688 -9.929688 10.492188 -10.800781 10.671875 -11.65625 C 10.847656 -12.519531 10.9375 -13.21875 10.9375 -13.75 C 10.9375 -15.039062 10.484375 -15.6875 9.578125 -15.6875 C 8.921875 -15.6875 8.335938 -15.363281 7.828125 -14.71875 C 7.316406 -14.070312 6.910156 -13.234375 6.609375 -12.203125 L 4.03125 0 L -1.4375 0 L 2.578125 -19 L 8.0625 -19 L 7.640625 -17.03125 C 8.898438 -18.445312 10.378906 -19.15625 12.078125 -19.15625 C 13.367188 -19.15625 14.394531 -18.800781 15.15625 -18.09375 C 15.914062 -17.382812 16.296875 -16.304688 16.296875 -14.859375 C 16.296875 -14.117188 16.207031 -13.300781 16.03125 -12.40625 C 15.851562 -11.507812 15.601562 -10.414062 15.28125 -9.125 C 15.070312 -8.332031 14.882812 -7.5625 14.71875 -6.8125 C 14.5625 -6.070312 14.484375 -5.484375 14.484375 -5.046875 C 14.484375 -4.546875 14.59375 -4.15625 14.8125 -3.875 C 15.039062 -3.59375 15.4375 -3.453125 16 -3.453125 C 16.757812 -3.453125 17.363281 -3.722656 17.8125 -4.265625 C 18.269531 -4.816406 18.726562 -5.660156 19.1875 -6.796875 L 20.78125 -6.796875 C 19.84375 -4.015625 18.757812 -2.144531 17.53125 -1.1875 C 16.300781 -0.238281 15.03125 0.234375 13.71875 0.234375 Z M 13.71875 0.234375 "/></g></g></g><g fill="rgb(100%, 100%, 100%)" fill-opacity="1"><g transform="translate(285.369171, 179.299997)"><g><path d="M 6.71875 9.5 C 5.507812 9.5 4.5 9.179688 3.6875 8.546875 C 2.875 7.910156 2.46875 7 2.46875 5.8125 C 2.46875 4.363281 3.050781 3.203125 4.21875 2.328125 C 5.382812 1.460938 6.863281 0.738281 8.65625 0.15625 L 9.125 -1.859375 C 7.832031 -0.460938 6.3125 0.234375 4.5625 0.234375 C 3.113281 0.234375 1.90625 -0.257812 0.9375 -1.25 C -0.0195312 -2.238281 -0.5 -3.785156 -0.5 -5.890625 C -0.5 -7.765625 -0.125 -9.734375 0.625 -11.796875 C 1.375 -13.859375 2.488281 -15.601562 3.96875 -17.03125 C 5.445312 -18.46875 7.210938 -19.1875 9.265625 -19.1875 C 10.304688 -19.1875 11.078125 -19.007812 11.578125 -18.65625 C 12.085938 -18.300781 12.34375 -17.832031 12.34375 -17.25 L 12.34375 -17.03125 L 12.765625 -19 L 18.234375 -19 L 14.484375 -1.375 C 15.691406 -1.769531 16.660156 -2.375 17.390625 -3.1875 C 18.128906 -4 18.753906 -5.203125 19.265625 -6.796875 L 20.859375 -6.796875 C 20.179688 -4.546875 19.257812 -2.894531 18.09375 -1.84375 C 16.925781 -0.789062 15.609375 -0.078125 14.140625 0.296875 L 13.5625 3.046875 C 13.0625 5.492188 12.1875 7.179688 10.9375 8.109375 C 9.695312 9.035156 8.289062 9.5 6.71875 9.5 Z M 7.03125 -3.453125 C 7.613281 -3.453125 8.207031 -3.71875 8.8125 -4.25 C 9.425781 -4.78125 9.84375 -5.503906 10.0625 -6.421875 L 12.015625 -15.421875 C 12.015625 -15.734375 11.882812 -16.046875 11.625 -16.359375 C 11.375 -16.671875 10.984375 -16.828125 10.453125 -16.828125 C 9.441406 -16.828125 8.53125 -16.238281 7.71875 -15.0625 C 6.90625 -13.882812 6.269531 -12.46875 5.8125 -10.8125 C 5.351562 -9.15625 5.125 -7.691406 5.125 -6.421875 C 5.125 -5.148438 5.304688 -4.335938 5.671875 -3.984375 C 6.046875 -3.628906 6.5 -3.453125 7.03125 -3.453125 Z M 5.859375 6.53125 C 6.285156 6.53125 6.703125 6.238281 7.109375 5.65625 C 7.515625 5.070312 7.832031 4.238281 8.0625 3.15625 L 8.28125 2.046875 C 5.800781 2.960938 4.5625 4.039062 4.5625 5.28125 C 4.5625 5.613281 4.675781 5.90625 4.90625 6.15625 C 5.132812 6.40625 5.453125 6.53125 5.859375 6.53125 Z M 5.859375 6.53125 "/></g></g></g><g fill="rgb(100%, 100%, 100%)" fill-opacity="1"><g transform="translate(103.447264, 205.657808)"><g><path d="M 1.34375 -12.234375 L 3.859375 -12.234375 L 3.859375 -7.203125 L 8.578125 -12.234375 L 11.875 -12.234375 L 6.859375 -7.203125 L 12.140625 0 L 8.84375 0 L 5.078125 -5.34375 L 3.859375 -4.09375 L 3.859375 0 L 1.34375 0 Z M 1.34375 -12.234375 "/></g></g></g><g fill="rgb(100%, 100%, 100%)" fill-opacity="1"><g transform="translate(115.718477, 205.657808)"><g><path d="M 5.15625 -1.671875 C 5.851562 -1.671875 6.382812 -1.914062 6.75 -2.40625 C 7.125 -2.894531 7.3125 -3.59375 7.3125 -4.5 C 7.3125 -5.414062 7.125 -6.117188 6.75 -6.609375 C 6.382812 -7.097656 5.851562 -7.34375 5.15625 -7.34375 C 4.46875 -7.34375 3.9375 -7.097656 3.5625 -6.609375 C 3.1875 -6.117188 3 -5.414062 3 -4.5 C 3 -3.59375 3.1875 -2.894531 3.5625 -2.40625 C 3.9375 -1.914062 4.46875 -1.671875 5.15625 -1.671875 Z M 9.796875 -4.5 C 9.796875 -3.175781 9.410156 -2.039062 8.640625 -1.09375 C 7.878906 -0.15625 6.722656 0.3125 5.171875 0.3125 C 3.617188 0.3125 2.457031 -0.15625 1.6875 -1.09375 C 0.925781 -2.039062 0.546875 -3.175781 0.546875 -4.5 C 0.546875 -5.8125 0.925781 -6.945312 1.6875 -7.90625 C 2.457031 -8.863281 3.617188 -9.34375 5.171875 -9.34375 C 6.722656 -9.34375 7.878906 -8.863281 8.640625 -7.90625 C 9.410156 -6.945312 9.796875 -5.8125 9.796875 -4.5 Z M 5.171875 -9.28125 Z M 5.171875 -9.28125 "/></g></g></g><g fill="rgb(100%, 100%, 100%)" fill-opacity="1"><g transform="translate(126.097982, 205.657808)"><g><path d="M 6.015625 -9.265625 C 6.054688 -9.265625 6.09375 -9.257812 6.125 -9.25 C 6.15625 -9.25 6.222656 -9.25 6.328125 -9.25 L 6.328125 -6.828125 C 6.179688 -6.835938 6.050781 -6.84375 5.9375 -6.84375 C 5.820312 -6.851562 5.726562 -6.859375 5.65625 -6.859375 C 4.695312 -6.859375 4.054688 -6.550781 3.734375 -5.9375 C 3.554688 -5.582031 3.46875 -5.046875 3.46875 -4.328125 L 3.46875 0 L 1.078125 0 L 1.078125 -9.046875 L 3.34375 -9.046875 L 3.34375 -7.46875 C 3.707031 -8.070312 4.023438 -8.484375 4.296875 -8.703125 C 4.734375 -9.078125 5.304688 -9.265625 6.015625 -9.265625 Z M 6.015625 -9.265625 "/></g></g></g><g fill="rgb(100%, 100%, 100%)" fill-opacity="1"><g transform="translate(132.710664, 205.657808)"><g><path d="M 4.671875 -7.34375 C 4.128906 -7.34375 3.707031 -7.171875 3.40625 -6.828125 C 3.101562 -6.484375 2.910156 -6.015625 2.828125 -5.421875 L 6.515625 -5.421875 C 6.472656 -6.046875 6.28125 -6.519531 5.9375 -6.84375 C 5.59375 -7.175781 5.171875 -7.34375 4.671875 -7.34375 Z M 4.671875 -9.28125 C 5.421875 -9.28125 6.097656 -9.140625 6.703125 -8.859375 C 7.304688 -8.578125 7.804688 -8.132812 8.203125 -7.53125 C 8.554688 -6.988281 8.785156 -6.363281 8.890625 -5.65625 C 8.953125 -5.238281 8.976562 -4.644531 8.96875 -3.875 L 2.765625 -3.875 C 2.804688 -2.957031 3.09375 -2.316406 3.625 -1.953125 C 3.957031 -1.734375 4.351562 -1.625 4.8125 -1.625 C 5.289062 -1.625 5.6875 -1.757812 6 -2.03125 C 6.164062 -2.1875 6.3125 -2.394531 6.4375 -2.65625 L 8.84375 -2.65625 C 8.78125 -2.113281 8.503906 -1.566406 8.015625 -1.015625 C 7.234375 -0.140625 6.144531 0.296875 4.75 0.296875 C 3.601562 0.296875 2.585938 -0.0703125 1.703125 -0.8125 C 0.828125 -1.550781 0.390625 -2.757812 0.390625 -4.4375 C 0.390625 -6 0.785156 -7.195312 1.578125 -8.03125 C 2.367188 -8.863281 3.398438 -9.28125 4.671875 -9.28125 Z M 4.84375 -9.28125 Z M 4.84375 -9.28125 "/></g></g></g><g fill="rgb(100%, 100%, 100%)" fill-opacity="1"><g transform="translate(142.160908, 205.657808)"><g><path d="M 6.09375 -4.40625 C 5.945312 -4.3125 5.796875 -4.234375 5.640625 -4.171875 C 5.484375 -4.109375 5.273438 -4.054688 5.015625 -4.015625 L 4.484375 -3.90625 C 3.984375 -3.820312 3.625 -3.71875 3.40625 -3.59375 C 3.039062 -3.375 2.859375 -3.035156 2.859375 -2.578125 C 2.859375 -2.171875 2.96875 -1.878906 3.1875 -1.703125 C 3.414062 -1.523438 3.691406 -1.4375 4.015625 -1.4375 C 4.523438 -1.4375 4.992188 -1.582031 5.421875 -1.875 C 5.847656 -2.175781 6.070312 -2.722656 6.09375 -3.515625 Z M 4.65625 -5.5 C 5.09375 -5.5625 5.40625 -5.632812 5.59375 -5.71875 C 5.925781 -5.851562 6.09375 -6.078125 6.09375 -6.390625 C 6.09375 -6.753906 5.960938 -7.003906 5.703125 -7.140625 C 5.453125 -7.285156 5.078125 -7.359375 4.578125 -7.359375 C 4.023438 -7.359375 3.628906 -7.222656 3.390625 -6.953125 C 3.222656 -6.742188 3.113281 -6.46875 3.0625 -6.125 L 0.78125 -6.125 C 0.832031 -6.914062 1.050781 -7.5625 1.4375 -8.0625 C 2.0625 -8.863281 3.140625 -9.265625 4.671875 -9.265625 C 5.660156 -9.265625 6.539062 -9.066406 7.3125 -8.671875 C 8.070312 -8.273438 8.453125 -7.535156 8.453125 -6.453125 L 8.453125 -2.296875 C 8.453125 -2.015625 8.457031 -1.664062 8.46875 -1.25 C 8.488281 -0.9375 8.535156 -0.722656 8.609375 -0.609375 C 8.691406 -0.503906 8.8125 -0.414062 8.96875 -0.34375 L 8.96875 0 L 6.390625 0 C 6.316406 -0.1875 6.265625 -0.359375 6.234375 -0.515625 C 6.210938 -0.671875 6.191406 -0.851562 6.171875 -1.0625 C 5.847656 -0.707031 5.472656 -0.40625 5.046875 -0.15625 C 4.535156 0.132812 3.960938 0.28125 3.328125 0.28125 C 2.503906 0.28125 1.820312 0.046875 1.28125 -0.421875 C 0.75 -0.890625 0.484375 -1.550781 0.484375 -2.40625 C 0.484375 -3.519531 0.914062 -4.328125 1.78125 -4.828125 C 2.25 -5.097656 2.941406 -5.289062 3.859375 -5.40625 Z M 4.78125 -9.28125 Z M 4.78125 -9.28125 "/></g></g></g><g fill="rgb(100%, 100%, 100%)" fill-opacity="1"><g transform="translate(151.611152, 205.657808)"><g><path d="M 6.125 -9.265625 C 7.050781 -9.265625 7.8125 -9.019531 8.40625 -8.53125 C 9.007812 -8.039062 9.3125 -7.226562 9.3125 -6.09375 L 9.3125 0 L 6.875 0 L 6.875 -5.5 C 6.875 -5.976562 6.8125 -6.34375 6.6875 -6.59375 C 6.457031 -7.0625 6.015625 -7.296875 5.359375 -7.296875 C 4.554688 -7.296875 4.003906 -6.957031 3.703125 -6.28125 C 3.554688 -5.914062 3.484375 -5.453125 3.484375 -4.890625 L 3.484375 0 L 1.125 0 L 1.125 -9.03125 L 3.40625 -9.03125 L 3.40625 -7.71875 C 3.707031 -8.175781 3.992188 -8.507812 4.265625 -8.71875 C 4.753906 -9.082031 5.375 -9.265625 6.125 -9.265625 Z M 5.25 -9.28125 Z M 5.25 -9.28125 "/></g></g></g><g fill="rgb(100%, 100%, 100%)" fill-opacity="1"><g transform="translate(161.990657, 205.657808)"><g/></g></g><g fill="rgb(100%, 100%, 100%)" fill-opacity="1"><g transform="translate(166.71163, 205.657808)"><g><path d="M 8.453125 -12.234375 L 11.109375 -12.234375 L 6.9375 0 L 4.53125 0 L 0.390625 -12.234375 L 3.125 -12.234375 L 5.78125 -2.953125 Z M 8.453125 -12.234375 "/></g></g></g><g fill="rgb(100%, 100%, 100%)" fill-opacity="1"><g transform="translate(178.045286, 205.657808)"><g><path d="M 6.09375 -4.40625 C 5.945312 -4.3125 5.796875 -4.234375 5.640625 -4.171875 C 5.484375 -4.109375 5.273438 -4.054688 5.015625 -4.015625 L 4.484375 -3.90625 C 3.984375 -3.820312 3.625 -3.71875 3.40625 -3.59375 C 3.039062 -3.375 2.859375 -3.035156 2.859375 -2.578125 C 2.859375 -2.171875 2.96875 -1.878906 3.1875 -1.703125 C 3.414062 -1.523438 3.691406 -1.4375 4.015625 -1.4375 C 4.523438 -1.4375 4.992188 -1.582031 5.421875 -1.875 C 5.847656 -2.175781 6.070312 -2.722656 6.09375 -3.515625 Z M 4.65625 -5.5 C 5.09375 -5.5625 5.40625 -5.632812 5.59375 -5.71875 C 5.925781 -5.851562 6.09375 -6.078125 6.09375 -6.390625 C 6.09375 -6.753906 5.960938 -7.003906 5.703125 -7.140625 C 5.453125 -7.285156 5.078125 -7.359375 4.578125 -7.359375 C 4.023438 -7.359375 3.628906 -7.222656 3.390625 -6.953125 C 3.222656 -6.742188 3.113281 -6.46875 3.0625 -6.125 L 0.78125 -6.125 C 0.832031 -6.914062 1.050781 -7.5625 1.4375 -8.0625 C 2.0625 -8.863281 3.140625 -9.265625 4.671875 -9.265625 C 5.660156 -9.265625 6.539062 -9.066406 7.3125 -8.671875 C 8.070312 -8.273438 8.453125 -7.535156 8.453125 -6.453125 L 8.453125 -2.296875 C 8.453125 -2.015625 8.457031 -1.664062 8.46875 -1.25 C 8.488281 -0.9375 8.535156 -0.722656 8.609375 -0.609375 C 8.691406 -0.503906 8.8125 -0.414062 8.96875 -0.34375 L 8.96875 0 L 6.390625 0 C 6.316406 -0.1875 6.265625 -0.359375 6.234375 -0.515625 C 6.210938 -0.671875 6.191406 -0.851562 6.171875 -1.0625 C 5.847656 -0.707031 5.472656 -0.40625 5.046875 -0.15625 C 4.535156 0.132812 3.960938 0.28125 3.328125 0.28125 C 2.503906 0.28125 1.820312 0.046875 1.28125 -0.421875 C 0.75 -0.890625 0.484375 -1.550781 0.484375 -2.40625 C 0.484375 -3.519531 0.914062 -4.328125 1.78125 -4.828125 C 2.25 -5.097656 2.941406 -5.289062 3.859375 -5.40625 Z M 4.78125 -9.28125 Z M 4.78125 -9.28125 "/></g></g></g><g fill="rgb(100%, 100%, 100%)" fill-opacity="1"><g transform="translate(187.49553, 205.657808)"><g><path d="M 6.015625 -9.265625 C 6.054688 -9.265625 6.09375 -9.257812 6.125 -9.25 C 6.15625 -9.25 6.222656 -9.25 6.328125 -9.25 L 6.328125 -6.828125 C 6.179688 -6.835938 6.050781 -6.84375 5.9375 -6.84375 C 5.820312 -6.851562 5.726562 -6.859375 5.65625 -6.859375 C 4.695312 -6.859375 4.054688 -6.550781 3.734375 -5.9375 C 3.554688 -5.582031 3.46875 -5.046875 3.46875 -4.328125 L 3.46875 0 L 1.078125 0 L 1.078125 -9.046875 L 3.34375 -9.046875 L 3.34375 -7.46875 C 3.707031 -8.070312 4.023438 -8.484375 4.296875 -8.703125 C 4.734375 -9.078125 5.304688 -9.265625 6.015625 -9.265625 Z M 6.015625 -9.265625 "/></g></g></g><g fill="rgb(100%, 100%, 100%)" fill-opacity="1"><g transform="translate(194.108212, 205.657808)"><g><path d="M 3.53125 -10.125 L 1.140625 -10.125 L 1.140625 -12.3125 L 3.53125 -12.3125 Z M 1.140625 -9.046875 L 3.53125 -9.046875 L 3.53125 0 L 1.140625 0 Z M 1.140625 -9.046875 "/></g></g></g><g fill="rgb(100%, 100%, 100%)" fill-opacity="1"><g transform="translate(198.829186, 205.657808)"><g><path d="M 4.671875 -7.34375 C 4.128906 -7.34375 3.707031 -7.171875 3.40625 -6.828125 C 3.101562 -6.484375 2.910156 -6.015625 2.828125 -5.421875 L 6.515625 -5.421875 C 6.472656 -6.046875 6.28125 -6.519531 5.9375 -6.84375 C 5.59375 -7.175781 5.171875 -7.34375 4.671875 -7.34375 Z M 4.671875 -9.28125 C 5.421875 -9.28125 6.097656 -9.140625 6.703125 -8.859375 C 7.304688 -8.578125 7.804688 -8.132812 8.203125 -7.53125 C 8.554688 -6.988281 8.785156 -6.363281 8.890625 -5.65625 C 8.953125 -5.238281 8.976562 -4.644531 8.96875 -3.875 L 2.765625 -3.875 C 2.804688 -2.957031 3.09375 -2.316406 3.625 -1.953125 C 3.957031 -1.734375 4.351562 -1.625 4.8125 -1.625 C 5.289062 -1.625 5.6875 -1.757812 6 -2.03125 C 6.164062 -2.1875 6.3125 -2.394531 6.4375 -2.65625 L 8.84375 -2.65625 C 8.78125 -2.113281 8.503906 -1.566406 8.015625 -1.015625 C 7.234375 -0.140625 6.144531 0.296875 4.75 0.296875 C 3.601562 0.296875 2.585938 -0.0703125 1.703125 -0.8125 C 0.828125 -1.550781 0.390625 -2.757812 0.390625 -4.4375 C 0.390625 -6 0.785156 -7.195312 1.578125 -8.03125 C 2.367188 -8.863281 3.398438 -9.28125 4.671875 -9.28125 Z M 4.84375 -9.28125 Z M 4.84375 -9.28125 "/></g></g></g><g fill="rgb(100%, 100%, 100%)" fill-opacity="1"><g transform="translate(208.27943, 205.657808)"><g><path d="M 0.171875 -7.28125 L 0.171875 -8.96875 L 1.4375 -8.96875 L 1.4375 -11.484375 L 3.78125 -11.484375 L 3.78125 -8.96875 L 5.25 -8.96875 L 5.25 -7.28125 L 3.78125 -7.28125 L 3.78125 -2.5 C 3.78125 -2.125 3.828125 -1.890625 3.921875 -1.796875 C 4.015625 -1.710938 4.300781 -1.671875 4.78125 -1.671875 C 4.851562 -1.671875 4.925781 -1.671875 5 -1.671875 C 5.082031 -1.671875 5.164062 -1.675781 5.25 -1.6875 L 5.25 0.078125 L 4.125 0.125 C 3.007812 0.164062 2.242188 -0.0234375 1.828125 -0.453125 C 1.566406 -0.722656 1.4375 -1.140625 1.4375 -1.703125 L 1.4375 -7.28125 Z M 0.171875 -7.28125 "/></g></g></g><g fill="rgb(100%, 100%, 100%)" fill-opacity="1"><g transform="translate(213.937961, 205.657808)"><g><path d="M 1.46875 1.734375 L 1.765625 1.75 C 1.992188 1.757812 2.210938 1.75 2.421875 1.71875 C 2.640625 1.695312 2.820312 1.632812 2.96875 1.53125 C 3.101562 1.4375 3.226562 1.238281 3.34375 0.9375 C 3.46875 0.644531 3.519531 0.46875 3.5 0.40625 L 0.171875 -9.046875 L 2.8125 -9.046875 L 4.78125 -2.375 L 6.65625 -9.046875 L 9.171875 -9.046875 L 6.0625 -0.15625 C 5.457031 1.5625 4.984375 2.625 4.640625 3.03125 C 4.296875 3.445312 3.597656 3.65625 2.546875 3.65625 C 2.335938 3.65625 2.164062 3.65625 2.03125 3.65625 C 1.90625 3.65625 1.71875 3.644531 1.46875 3.625 Z M 4.671875 -9.28125 Z M 4.671875 -9.28125 "/></g></g></g><g fill="rgb(100%, 100%, 100%)" fill-opacity="1"><g transform="translate(223.388205, 205.657808)"><g/></g></g><g fill="rgb(100%, 100%, 100%)" fill-opacity="1"><g transform="translate(228.109179, 205.657808)"><g><path d="M 3.140625 -3.78125 C 3.222656 -3.21875 3.378906 -2.800781 3.609375 -2.53125 C 4.015625 -2.019531 4.722656 -1.765625 5.734375 -1.765625 C 6.335938 -1.765625 6.828125 -1.832031 7.203125 -1.96875 C 7.921875 -2.21875 8.28125 -2.691406 8.28125 -3.390625 C 8.28125 -3.796875 8.101562 -4.109375 7.75 -4.328125 C 7.394531 -4.546875 6.835938 -4.734375 6.078125 -4.890625 L 4.78125 -5.1875 C 3.507812 -5.476562 2.628906 -5.789062 2.140625 -6.125 C 1.316406 -6.6875 0.90625 -7.570312 0.90625 -8.78125 C 0.90625 -9.875 1.300781 -10.78125 2.09375 -11.5 C 2.894531 -12.226562 4.066406 -12.59375 5.609375 -12.59375 C 6.898438 -12.59375 8 -12.25 8.90625 -11.5625 C 9.820312 -10.882812 10.300781 -9.894531 10.34375 -8.59375 L 7.890625 -8.59375 C 7.835938 -9.332031 7.515625 -9.851562 6.921875 -10.15625 C 6.523438 -10.363281 6.03125 -10.46875 5.4375 -10.46875 C 4.78125 -10.46875 4.253906 -10.332031 3.859375 -10.0625 C 3.460938 -9.800781 3.265625 -9.429688 3.265625 -8.953125 C 3.265625 -8.515625 3.460938 -8.191406 3.859375 -7.984375 C 4.097656 -7.835938 4.628906 -7.664062 5.453125 -7.46875 L 7.546875 -6.96875 C 8.472656 -6.738281 9.171875 -6.441406 9.640625 -6.078125 C 10.367188 -5.503906 10.734375 -4.671875 10.734375 -3.578125 C 10.734375 -2.460938 10.304688 -1.535156 9.453125 -0.796875 C 8.597656 -0.0546875 7.390625 0.3125 5.828125 0.3125 C 4.234375 0.3125 2.976562 -0.0507812 2.0625 -0.78125 C 1.15625 -1.507812 0.703125 -2.507812 0.703125 -3.78125 Z M 5.625 -12.609375 Z M 5.625 -12.609375 "/></g></g></g><g fill="rgb(100%, 100%, 100%)" fill-opacity="1"><g transform="translate(239.442834, 205.657808)"><g><path d="M 0.171875 -7.28125 L 0.171875 -8.96875 L 1.4375 -8.96875 L 1.4375 -11.484375 L 3.78125 -11.484375 L 3.78125 -8.96875 L 5.25 -8.96875 L 5.25 -7.28125 L 3.78125 -7.28125 L 3.78125 -2.5 C 3.78125 -2.125 3.828125 -1.890625 3.921875 -1.796875 C 4.015625 -1.710938 4.300781 -1.671875 4.78125 -1.671875 C 4.851562 -1.671875 4.925781 -1.671875 5 -1.671875 C 5.082031 -1.671875 5.164062 -1.675781 5.25 -1.6875 L 5.25 0.078125 L 4.125 0.125 C 3.007812 0.164062 2.242188 -0.0234375 1.828125 -0.453125 C 1.566406 -0.722656 1.4375 -1.140625 1.4375 -1.703125 L 1.4375 -7.28125 Z M 0.171875 -7.28125 "/></g></g></g><g fill="rgb(100%, 100%, 100%)" fill-opacity="1"><g transform="translate(245.101365, 205.657808)"><g><path d="M 5.15625 -1.671875 C 5.851562 -1.671875 6.382812 -1.914062 6.75 -2.40625 C 7.125 -2.894531 7.3125 -3.59375 7.3125 -4.5 C 7.3125 -5.414062 7.125 -6.117188 6.75 -6.609375 C 6.382812 -7.097656 5.851562 -7.34375 5.15625 -7.34375 C 4.46875 -7.34375 3.9375 -7.097656 3.5625 -6.609375 C 3.1875 -6.117188 3 -5.414062 3 -4.5 C 3 -3.59375 3.1875 -2.894531 3.5625 -2.40625 C 3.9375 -1.914062 4.46875 -1.671875 5.15625 -1.671875 Z M 9.796875 -4.5 C 9.796875 -3.175781 9.410156 -2.039062 8.640625 -1.09375 C 7.878906 -0.15625 6.722656 0.3125 5.171875 0.3125 C 3.617188 0.3125 2.457031 -0.15625 1.6875 -1.09375 C 0.925781 -2.039062 0.546875 -3.175781 0.546875 -4.5 C 0.546875 -5.8125 0.925781 -6.945312 1.6875 -7.90625 C 2.457031 -8.863281 3.617188 -9.34375 5.171875 -9.34375 C 6.722656 -9.34375 7.878906 -8.863281 8.640625 -7.90625 C 9.410156 -6.945312 9.796875 -5.8125 9.796875 -4.5 Z M 5.171875 -9.28125 Z M 5.171875 -9.28125 "/></g></g></g><g fill="rgb(100%, 100%, 100%)" fill-opacity="1"><g transform="translate(255.480869, 205.657808)"><g><path d="M 6.015625 -9.265625 C 6.054688 -9.265625 6.09375 -9.257812 6.125 -9.25 C 6.15625 -9.25 6.222656 -9.25 6.328125 -9.25 L 6.328125 -6.828125 C 6.179688 -6.835938 6.050781 -6.84375 5.9375 -6.84375 C 5.820312 -6.851562 5.726562 -6.859375 5.65625 -6.859375 C 4.695312 -6.859375 4.054688 -6.550781 3.734375 -5.9375 C 3.554688 -5.582031 3.46875 -5.046875 3.46875 -4.328125 L 3.46875 0 L 1.078125 0 L 1.078125 -9.046875 L 3.34375 -9.046875 L 3.34375 -7.46875 C 3.707031 -8.070312 4.023438 -8.484375 4.296875 -8.703125 C 4.734375 -9.078125 5.304688 -9.265625 6.015625 -9.265625 Z M 6.015625 -9.265625 "/></g></g></g><g fill="rgb(100%, 100%, 100%)" fill-opacity="1"><g transform="translate(262.093551, 205.657808)"><g><path d="M 4.671875 -7.34375 C 4.128906 -7.34375 3.707031 -7.171875 3.40625 -6.828125 C 3.101562 -6.484375 2.910156 -6.015625 2.828125 -5.421875 L 6.515625 -5.421875 C 6.472656 -6.046875 6.28125 -6.519531 5.9375 -6.84375 C 5.59375 -7.175781 5.171875 -7.34375 4.671875 -7.34375 Z M 4.671875 -9.28125 C 5.421875 -9.28125 6.097656 -9.140625 6.703125 -8.859375 C 7.304688 -8.578125 7.804688 -8.132812 8.203125 -7.53125 C 8.554688 -6.988281 8.785156 -6.363281 8.890625 -5.65625 C 8.953125 -5.238281 8.976562 -4.644531 8.96875 -3.875 L 2.765625 -3.875 C 2.804688 -2.957031 3.09375 -2.316406 3.625 -1.953125 C 3.957031 -1.734375 4.351562 -1.625 4.8125 -1.625 C 5.289062 -1.625 5.6875 -1.757812 6 -2.03125 C 6.164062 -2.1875 6.3125 -2.394531 6.4375 -2.65625 L 8.84375 -2.65625 C 8.78125 -2.113281 8.503906 -1.566406 8.015625 -1.015625 C 7.234375 -0.140625 6.144531 0.296875 4.75 0.296875 C 3.601562 0.296875 2.585938 -0.0703125 1.703125 -0.8125 C 0.828125 -1.550781 0.390625 -2.757812 0.390625 -4.4375 C 0.390625 -6 0.785156 -7.195312 1.578125 -8.03125 C 2.367188 -8.863281 3.398438 -9.28125 4.671875 -9.28125 Z M 4.84375 -9.28125 Z M 4.84375 -9.28125 "/></g></g></g></svg>