<svg xmlns="http://www.w3.org/2000/svg" xmlns:xlink="http://www.w3.org/1999/xlink" width="900" zoomAndPan="magnify" viewBox="0 0 675 112.499997" height="150" preserveAspectRatio="xMidYMid meet" version="1.0"><defs><g/><clipPath id="id1"><path d="M 1.492188 0 L 673.503906 0 L 673.503906 112.003906 L 1.492188 112.003906 Z M 1.492188 0 " clip-rule="nonzero"/></clipPath></defs><g clip-path="url(#id1)"><path fill="rgb(100%, 100%, 100%)" d="M 1.492188 0 L 673.507812 0 L 673.507812 119.46875 L 1.492188 119.46875 Z M 1.492188 0 " fill-opacity="1" fill-rule="nonzero"/><path fill="rgb(97.648621%, 97.648621%, 93.728638%)" d="M 1.492188 0 L 673.507812 0 L 673.507812 112.003906 L 1.492188 112.003906 Z M 1.492188 0 " fill-opacity="1" fill-rule="nonzero"/><path fill="rgb(100%, 100%, 100%)" d="M 1.492188 0 L 673.507812 0 L 673.507812 112.003906 L 1.492188 112.003906 Z M 1.492188 0 " fill-opacity="1" fill-rule="nonzero"/><path fill="rgb(97.648621%, 97.648621%, 93.728638%)" d="M 1.492188 0 L 673.507812 0 L 673.507812 112.003906 L 1.492188 112.003906 Z M 1.492188 0 " fill-opacity="1" fill-rule="nonzero"/></g><g fill="rgb(52.938843%, 29.798889%, 38.42926%)" fill-opacity="1"><g transform="translate(239.188928, 70.561389)"><g><path d="M 0.441406 -11.996094 C 0.441406 -5.445312 2.832031 2.300781 8.988281 2.300781 C 17.441406 2.300781 19.390625 -14.167969 19.390625 -20.054688 C 19.390625 -25.855469 17.929688 -30.988281 12.128906 -30.988281 C 10.847656 -30.988281 9.695312 -30.238281 9.695312 -30.238281 C 9.339844 -30.722656 9.207031 -31.078125 8.457031 -31.300781 C 4.558594 -30.148438 0.441406 -19.832031 0.441406 -11.996094 Z M 3.277344 -9.917969 C 3.277344 -16.335938 5.269531 -20.410156 5.222656 -20.410156 C 5.535156 -20.097656 6.464844 -19.699219 6.816406 -19.699219 C 6.90625 -19.699219 6.949219 -19.699219 6.949219 -19.746094 C 7.660156 -23.507812 9.429688 -28.511719 13.238281 -28.511719 C 15.316406 -28.511719 16.113281 -25.765625 16.113281 -23.066406 C 16.113281 -19.347656 14.609375 -0.929688 7.703125 -0.929688 C 4.78125 -0.929688 3.277344 -4.914062 3.277344 -9.917969 Z M 3.277344 -9.917969 "/></g></g></g><g fill="rgb(52.938843%, 29.798889%, 38.42926%)" fill-opacity="1"><g transform="translate(258.134042, 70.561389)"><g><path d="M 2.082031 -18.371094 L 4.074219 -18.816406 C 2.964844 -14.078125 2.082031 -8.765625 2.082031 -6.109375 C 2.082031 -1.550781 4.605469 1.59375 7.613281 1.59375 C 10.449219 1.59375 14.652344 -1.859375 14.652344 -4.871094 C 14.652344 -7.527344 13.058594 -7.128906 13.058594 -7.128906 C 12.882812 -4.78125 9.296875 -1.636719 6.683594 -1.636719 C 5.753906 -1.636719 5.269531 -2.347656 5.269531 -3.496094 C 5.269531 -7.527344 6.640625 -13.8125 8.101562 -19.480469 C 10.359375 -19.832031 12.839844 -20.144531 14.652344 -20.1875 C 15.230469 -20.1875 15.316406 -20.542969 15.316406 -20.851562 C 15.316406 -21.117188 14.609375 -22.089844 14.386719 -22.3125 C 13.855469 -22.84375 13.457031 -22.355469 13.191406 -22.976562 C 12.925781 -23.550781 12.085938 -23.375 11.113281 -23.285156 C 10.582031 -23.242188 9.871094 -23.152344 9.03125 -23.019531 L 9.917969 -26.296875 C 10.050781 -26.785156 7.746094 -28.464844 6.996094 -27.933594 C 6.507812 -27.582031 5.710938 -25.324219 4.914062 -22.3125 C 2.699219 -21.871094 0.664062 -21.339844 0.175781 -20.941406 C -0.441406 -20.410156 0.929688 -18.105469 2.082031 -18.371094 Z M 2.082031 -18.371094 "/></g></g></g><g fill="rgb(52.938843%, 29.798889%, 38.42926%)" fill-opacity="1"><g transform="translate(271.236274, 70.561389)"><g><path d="M 10.449219 -15.183594 C 10.09375 -13.988281 9.164062 -9.296875 9.164062 -6.417969 C 9.164062 -3.453125 10.316406 0.929688 13.769531 0.929688 C 16.734375 0.929688 19.613281 -2.082031 19.613281 -5.046875 C 19.613281 -6.597656 18.328125 -6.464844 18.328125 -6.464844 C 17.664062 -4.160156 16.425781 -1.636719 15.050781 -1.636719 C 13.636719 -1.636719 13.105469 -3.054688 13.105469 -4.824219 C 13.105469 -10.535156 15.316406 -18.460938 15.316406 -20.71875 C 15.316406 -21.691406 13.015625 -22.621094 11.863281 -22.621094 C 9.695312 -22.621094 6.066406 -11.730469 5.046875 -8.855469 L 4.648438 -8.941406 C 4.648438 -10.933594 6.152344 -22.445312 6.683594 -25.144531 C 7.171875 -27.535156 7.925781 -29.308594 7.925781 -31.875 C 7.925781 -33.113281 5.089844 -34 4.425781 -33.292969 C 2.746094 -31.386719 0.753906 -6.199219 0.753906 -1.371094 C 0.753906 -0.441406 2.347656 1.371094 3.941406 1.371094 C 4.871094 1.371094 5.046875 0.972656 5.046875 0.972656 C 5.445312 -4.78125 9.074219 -14.121094 9.917969 -15.273438 Z M 10.449219 -15.183594 "/></g></g></g><g fill="rgb(52.938843%, 29.798889%, 38.42926%)" fill-opacity="1"><g transform="translate(288.410812, 70.561389)"><g><path d="M 0 -5.179688 C 0 0.355469 3.1875 3.496094 6.597656 3.496094 C 11.511719 3.496094 13.902344 -3.011719 13.902344 -6.863281 C 13.902344 -8.101562 13.324219 -8.988281 12.617188 -8.988281 C 11.996094 -8.988281 11.996094 -8.5 11.996094 -8.5 C 11.996094 -5.578125 9.253906 -0.0429688 5.84375 -0.0429688 C 3.585938 -0.0429688 2.789062 -1.59375 2.789062 -3.675781 C 2.789062 -7.261719 3.585938 -9.605469 3.585938 -9.605469 C 3.585938 -9.605469 4.25 -7.746094 6.152344 -7.746094 C 9.652344 -7.746094 11.199219 -12.882812 11.199219 -18.550781 C 11.199219 -22.621094 9.253906 -23.949219 7.570312 -23.949219 C 3.675781 -23.949219 0 -12.574219 0 -5.179688 Z M 4.117188 -11.511719 C 4.605469 -14.742188 5.84375 -18.371094 6.90625 -20.761719 C 7.171875 -21.382812 7.394531 -21.558594 7.570312 -21.558594 C 7.792969 -21.558594 8.101562 -21.339844 8.101562 -19.480469 C 8.101562 -15.40625 6.773438 -10.402344 5.222656 -10.402344 C 4.339844 -10.402344 4.117188 -11.511719 4.117188 -11.511719 Z M 4.117188 -11.511719 "/></g></g></g><g fill="rgb(52.938843%, 29.798889%, 38.42926%)" fill-opacity="1"><g transform="translate(300.096587, 70.561389)"><g><path d="M 5.089844 -13.148438 C 5.222656 -15.761719 5.800781 -19.035156 5.933594 -21.425781 C 5.933594 -21.425781 4.558594 -22.445312 3.410156 -22.445312 C 1.902344 -22.445312 1.769531 -18.195312 1.636719 -13.8125 C 1.285156 -4.207031 0.796875 -2.566406 0.796875 -1.285156 C 0.796875 -0.308594 3.675781 0.929688 4.691406 0.308594 C 4.78125 -6.949219 6.90625 -12.042969 7.703125 -14.433594 C 7.878906 -12.484375 8.542969 -10.757812 11.15625 -10.757812 C 13.457031 -10.757812 14.832031 -13.28125 14.917969 -14.832031 C 14.917969 -15.140625 14.519531 -15.40625 14.210938 -15.40625 C 13.945312 -15.40625 13.414062 -12.792969 11.644531 -12.792969 C 10.933594 -12.792969 10.316406 -13.503906 10.316406 -14.121094 C 10.316406 -17.355469 12.21875 -19.964844 12.21875 -21.605469 C 12.21875 -22.488281 11.730469 -22.933594 10.800781 -23.152344 C 9.519531 -23.464844 8.367188 -23.109375 8.058594 -22.046875 C 7.4375 -19.832031 6.550781 -15.847656 5.402344 -13.015625 Z M 5.089844 -13.148438 "/></g></g></g><g fill="rgb(52.938843%, 29.798889%, 38.42926%)" fill-opacity="1"><g transform="translate(312.047944, 70.561389)"><g/></g></g><g fill="rgb(52.938843%, 29.798889%, 38.42926%)" fill-opacity="1"><g transform="translate(320.900805, 70.561389)"><g><path d="M 2.433594 1.859375 C 2.65625 2.167969 4.472656 2.921875 5.402344 2.921875 C 5.800781 2.921875 5.933594 2.699219 6.109375 2.390625 C 6.597656 1.503906 7.214844 0.398438 7.660156 -1.019531 C 8.058594 -2.300781 6.375 -1.238281 6.550781 -2.035156 L 7.792969 -11.15625 C 15.183594 -11.820312 19.832031 -17.042969 19.832031 -22.84375 C 19.832031 -28.597656 14.609375 -31.875 8.542969 -31.875 C 0.398438 -31.875 -1.019531 -26.386719 -1.019531 -26.386719 C -0.929688 -25.722656 1.460938 -24.304688 1.859375 -24.304688 C 2.035156 -24.304688 2.125 -24.4375 2.125 -24.4375 C 2.832031 -26.5625 4.648438 -29.394531 10.050781 -29.394531 C 13.722656 -29.394531 16.378906 -27.269531 16.378906 -23.816406 C 16.378906 -18.816406 13.148438 -15.140625 8.191406 -13.988281 C 8.941406 -19.433594 9.785156 -24.746094 10.359375 -26.960938 C 9.917969 -27.449219 8.808594 -27.890625 8.011719 -27.890625 C 6.816406 -27.890625 7.039062 -27.183594 6.90625 -26.652344 C 6.417969 -25.101562 5.488281 -19.699219 4.558594 -13.636719 C 2.832031 -13.636719 2.125 -14.121094 1.726562 -14.167969 C 0.707031 -13.546875 0.488281 -12.128906 1.371094 -11.777344 C 2.082031 -11.464844 3.144531 -11.332031 4.160156 -11.199219 C 3.453125 -6.550781 2.832031 -1.726562 2.433594 1.859375 Z M 2.433594 1.859375 "/></g></g></g><g fill="rgb(52.938843%, 29.798889%, 38.42926%)" fill-opacity="1"><g transform="translate(339.403272, 70.561389)"><g><path d="M 5.089844 -13.148438 C 5.222656 -15.761719 5.800781 -19.035156 5.933594 -21.425781 C 5.933594 -21.425781 4.558594 -22.445312 3.410156 -22.445312 C 1.902344 -22.445312 1.769531 -18.195312 1.636719 -13.8125 C 1.285156 -4.207031 0.796875 -2.566406 0.796875 -1.285156 C 0.796875 -0.308594 3.675781 0.929688 4.691406 0.308594 C 4.78125 -6.949219 6.90625 -12.042969 7.703125 -14.433594 C 7.878906 -12.484375 8.542969 -10.757812 11.15625 -10.757812 C 13.457031 -10.757812 14.832031 -13.28125 14.917969 -14.832031 C 14.917969 -15.140625 14.519531 -15.40625 14.210938 -15.40625 C 13.945312 -15.40625 13.414062 -12.792969 11.644531 -12.792969 C 10.933594 -12.792969 10.316406 -13.503906 10.316406 -14.121094 C 10.316406 -17.355469 12.21875 -19.964844 12.21875 -21.605469 C 12.21875 -22.488281 11.730469 -22.933594 10.800781 -23.152344 C 9.519531 -23.464844 8.367188 -23.109375 8.058594 -22.046875 C 7.4375 -19.832031 6.550781 -15.847656 5.402344 -13.015625 Z M 5.089844 -13.148438 "/></g></g></g><g fill="rgb(52.938843%, 29.798889%, 38.42926%)" fill-opacity="1"><g transform="translate(351.354629, 70.561389)"><g><path d="M 0.707031 -9.519531 C 0.574219 -4.648438 2.257812 1.460938 6.90625 1.460938 C 12.617188 1.460938 14.300781 -9.074219 14.476562 -13.945312 C 14.609375 -18.550781 13.855469 -22.84375 9.207031 -22.84375 C 8.277344 -22.84375 7.660156 -22.3125 7.660156 -22.3125 C 7.527344 -22.710938 7.082031 -23.109375 6.507812 -23.417969 C 3.71875 -22.578125 0.929688 -15.273438 0.707031 -9.519531 Z M 3.542969 -7.746094 C 3.585938 -9.386719 3.851562 -10.625 3.851562 -10.625 C 4.117188 -10.402344 5.089844 -10.050781 5.136719 -10.226562 C 5.578125 -12.75 7.660156 -20.496094 10.226562 -20.496094 C 11.996094 -20.496094 11.730469 -17.355469 11.6875 -16.070312 C 11.597656 -13.457031 10.226562 -1.636719 6.109375 -1.636719 C 4.292969 -1.636719 3.410156 -4.382812 3.542969 -7.746094 Z M 3.542969 -7.746094 "/></g></g></g><g fill="rgb(52.938843%, 29.798889%, 38.42926%)" fill-opacity="1"><g transform="translate(365.651989, 70.561389)"><g><path d="M 10.359375 -2.390625 C 10.359375 -0.621094 11.511719 0.886719 13.414062 0.886719 C 16.777344 0.886719 18.59375 -4.117188 18.59375 -6.464844 C 18.59375 -7.792969 17.308594 -7.660156 17.308594 -7.660156 C 17 -5.003906 16.070312 -2.125 14.609375 -2.125 C 13.679688 -2.125 13.148438 -2.789062 13.148438 -4.25 C 13.148438 -6.417969 16.292969 -28.15625 16.957031 -31.699219 C 17.132812 -32.628906 15.539062 -33.203125 13.988281 -33.203125 C 13.8125 -33.203125 13.371094 -33.160156 13.28125 -32.316406 C 13.058594 -30.589844 12.441406 -25.324219 11.820312 -21.871094 C 11.820312 -21.871094 10.714844 -22.933594 9.339844 -22.933594 C 3.363281 -22.933594 0.664062 -12.792969 0.664062 -6.550781 C 0.664062 -2.746094 1.992188 2.214844 5.976562 2.214844 C 7.96875 2.214844 9.652344 -0.796875 10.226562 -2.390625 Z M 3.984375 -3.894531 C 3.984375 -10.136719 6.550781 -20.71875 9.738281 -20.71875 C 10.402344 -20.71875 10.535156 -19.878906 10.535156 -19.167969 C 10.535156 -17.707031 9.785156 -15.628906 9.429688 -14.433594 C 9.871094 -13.769531 10.316406 -13.636719 10.757812 -13.546875 C 10.757812 -11.554688 7.261719 -0.972656 4.957031 -0.972656 C 4.074219 -0.972656 3.984375 -2.964844 3.984375 -3.894531 Z M 3.984375 -3.894531 "/></g></g></g><g fill="rgb(52.938843%, 29.798889%, 38.42926%)" fill-opacity="1"><g transform="translate(381.277278, 70.561389)"><g><path d="M 9.519531 -6.152344 C 9.386719 -3.628906 9.917969 -0.0429688 13.28125 -0.0429688 C 15.804688 -0.0429688 18.105469 -4.117188 18.105469 -5.800781 C 18.105469 -6.863281 17.308594 -6.90625 16.910156 -6.90625 C 16.910156 -6.90625 16.113281 -2.832031 14.210938 -2.832031 C 12.707031 -2.832031 12.351562 -5.222656 12.351562 -6.242188 C 12.351562 -9.5625 14.476562 -19.167969 14.476562 -20.808594 C 14.476562 -21.558594 12.839844 -22.488281 11.554688 -22.488281 C 11.15625 -22.488281 10.847656 -22.355469 10.800781 -21.957031 C 10.269531 -17.265625 7.746094 -8.277344 4.558594 -3.097656 L 3.941406 -3.320312 C 3.941406 -8.808594 5.179688 -15.007812 6.773438 -20.496094 C 6.375 -21.117188 5.179688 -21.691406 4.605469 -21.691406 C 2.964844 -21.691406 0.222656 -10.582031 0.222656 -5.402344 C 0.222656 -2.390625 3.320312 0.621094 5.269531 0.621094 C 7.304688 0.621094 8.675781 -4.074219 9.253906 -6.109375 Z M 9.519531 -6.152344 "/></g></g></g><g fill="rgb(52.938843%, 29.798889%, 38.42926%)" fill-opacity="1"><g transform="translate(396.725514, 70.561389)"><g><path d="M 0.488281 -7.394531 C 0.488281 -1.59375 3.542969 2.347656 8.058594 2.347656 C 14.121094 2.347656 15.847656 -5.003906 15.847656 -6.550781 C 15.847656 -8.632812 15.007812 -9.03125 14.476562 -9.03125 C 14.210938 -9.03125 13.769531 -8.988281 13.769531 -8.988281 C 13.503906 -6.242188 10.890625 -0.574219 7.261719 -0.574219 C 5.402344 -0.574219 4.160156 -1.859375 4.160156 -5.976562 C 4.160156 -12.75 6.332031 -19.699219 8.632812 -19.699219 C 9.164062 -19.699219 9.429688 -19.300781 9.429688 -18.636719 C 9.429688 -15.714844 7.925781 -14.078125 7.925781 -14.078125 L 7.925781 -13.8125 C 7.925781 -12.484375 8.632812 -11.6875 9.871094 -11.6875 C 11.464844 -11.6875 13.148438 -13.636719 13.148438 -17.796875 C 13.148438 -20.1875 10.980469 -22.3125 8.722656 -22.3125 C 3.097656 -22.3125 0.488281 -12.925781 0.488281 -7.394531 Z M 0.488281 -7.394531 "/></g></g></g><g fill="rgb(52.938843%, 29.798889%, 38.42926%)" fill-opacity="1"><g transform="translate(410.049064, 70.561389)"><g><path d="M 2.082031 -18.371094 L 4.074219 -18.816406 C 2.964844 -14.078125 2.082031 -8.765625 2.082031 -6.109375 C 2.082031 -1.550781 4.605469 1.59375 7.613281 1.59375 C 10.449219 1.59375 14.652344 -1.859375 14.652344 -4.871094 C 14.652344 -7.527344 13.058594 -7.128906 13.058594 -7.128906 C 12.882812 -4.78125 9.296875 -1.636719 6.683594 -1.636719 C 5.753906 -1.636719 5.269531 -2.347656 5.269531 -3.496094 C 5.269531 -7.527344 6.640625 -13.8125 8.101562 -19.480469 C 10.359375 -19.832031 12.839844 -20.144531 14.652344 -20.1875 C 15.230469 -20.1875 15.316406 -20.542969 15.316406 -20.851562 C 15.316406 -21.117188 14.609375 -22.089844 14.386719 -22.3125 C 13.855469 -22.84375 13.457031 -22.355469 13.191406 -22.976562 C 12.925781 -23.550781 12.085938 -23.375 11.113281 -23.285156 C 10.582031 -23.242188 9.871094 -23.152344 9.03125 -23.019531 L 9.917969 -26.296875 C 10.050781 -26.785156 7.746094 -28.464844 6.996094 -27.933594 C 6.507812 -27.582031 5.710938 -25.324219 4.914062 -22.3125 C 2.699219 -21.871094 0.664062 -21.339844 0.175781 -20.941406 C -0.441406 -20.410156 0.929688 -18.105469 2.082031 -18.371094 Z M 2.082031 -18.371094 "/></g></g></g><g fill="rgb(52.938843%, 29.798889%, 38.42926%)" fill-opacity="1"><g transform="translate(423.151296, 70.561389)"><g><path d="M 3.984375 -16.246094 C 4.292969 -16.601562 7.660156 -18.371094 8.808594 -18.417969 C 9.253906 -18.417969 9.386719 -17.222656 9.828125 -17.222656 C 10.933594 -17.222656 13.945312 -19.65625 13.945312 -21.339844 C 13.945312 -22.136719 12.925781 -23.285156 12.484375 -23.285156 C 11.820312 -23.285156 1.0625 -19.433594 0.886719 -17.574219 C 0.796875 -16.425781 1.238281 -14.875 2.035156 -14.210938 C 4.957031 -13.855469 9.121094 -10.582031 9.121094 -6.066406 C 9.121094 -3.054688 7.792969 -1.019531 5.003906 -1.019531 C 2.433594 -1.019531 1.859375 -3.1875 1.859375 -3.585938 C 1.859375 -3.984375 3.761719 -7.480469 3.761719 -8.898438 C 3.761719 -9.296875 2.390625 -10.535156 1.769531 -10.535156 C 0.175781 -10.535156 -0.886719 -7.039062 -0.886719 -5.402344 C -0.886719 -1.902344 2.699219 2.257812 6.417969 2.257812 C 9.472656 2.257812 12.175781 0.355469 12.175781 -4.738281 C 12.175781 -12.441406 4.027344 -16.070312 4.027344 -16.070312 Z M 3.984375 -16.246094 "/></g></g></g><path stroke-linecap="butt" transform="matrix(5.236958, 0, 0, 5.22677, 30.891111, 58.855475)" fill="none" stroke-linejoin="miter" d="M -0.0000928204 -0.00000121744 L 36.643764 -0.00000121744 " stroke="rgb(52.938843%, 29.798889%, 38.42926%)" stroke-width="1" stroke-opacity="1" stroke-miterlimit="4"/><path stroke-linecap="butt" transform="matrix(5.22677, 0, 0, 5.22677, 452.212727, 58.614487)" fill="none" stroke-linejoin="miter" d="M -0.000342451 -0.000230685 L 36.714197 -0.000230685 " stroke="rgb(52.938843%, 29.798889%, 38.42926%)" stroke-width="1" stroke-opacity="1" stroke-miterlimit="4"/></svg>