<svg xmlns="http://www.w3.org/2000/svg" xmlns:xlink="http://www.w3.org/1999/xlink" width="900" zoomAndPan="magnify" viewBox="0 0 675 112.499997" height="150" preserveAspectRatio="xMidYMid meet" version="1.0"><defs><g/><clipPath id="id1"><path d="M 1.492188 0 L 673.503906 0 L 673.503906 112.003906 L 1.492188 112.003906 Z M 1.492188 0 " clip-rule="nonzero"/></clipPath></defs><g clip-path="url(#id1)"><path fill="rgb(100%, 100%, 100%)" d="M 1.492188 0 L 673.507812 0 L 673.507812 119.46875 L 1.492188 119.46875 Z M 1.492188 0 " fill-opacity="1" fill-rule="nonzero"/><path fill="rgb(97.648621%, 97.648621%, 93.728638%)" d="M 1.492188 0 L 673.507812 0 L 673.507812 112.003906 L 1.492188 112.003906 Z M 1.492188 0 " fill-opacity="1" fill-rule="nonzero"/><path fill="rgb(100%, 100%, 100%)" d="M 1.492188 0 L 673.507812 0 L 673.507812 112.003906 L 1.492188 112.003906 Z M 1.492188 0 " fill-opacity="1" fill-rule="nonzero"/><path fill="rgb(97.648621%, 97.648621%, 93.728638%)" d="M 1.492188 0 L 673.507812 0 L 673.507812 112.003906 L 1.492188 112.003906 Z M 1.492188 0 " fill-opacity="1" fill-rule="nonzero"/></g><g fill="rgb(39.219666%, 39.219666%, 37.649536%)" fill-opacity="1"><g transform="translate(199.513274, 70.490046)"><g><path d="M 2.167969 -4.25 C 2.167969 -6.417969 3.71875 -8.855469 4.648438 -9.785156 C 4.382812 -10.757812 3.453125 -11.289062 2.214844 -11.289062 C 0.265625 -11.289062 -0.886719 -8.410156 -0.886719 -6.417969 C -0.886719 -2.390625 2.613281 2.746094 8.234375 2.746094 C 12.484375 2.746094 16.867188 -0.132812 16.867188 -5.933594 C 16.867188 -16.382812 8.011719 -22.402344 6.152344 -23.421875 C 8.058594 -25.058594 16.203125 -27.9375 16.203125 -26.875 C 16.203125 -26.386719 14.65625 -24.527344 14.65625 -24.128906 C 14.65625 -23.820312 14.742188 -23.640625 15.054688 -23.640625 C 16.160156 -23.640625 19.523438 -26.429688 19.523438 -28.554688 C 19.523438 -29.085938 17.886719 -30.769531 17.089844 -30.859375 C 12.664062 -31.257812 1.195312 -27.539062 1.285156 -24.660156 C 1.285156 -24.304688 2.300781 -22.359375 2.699219 -22.3125 C 5.578125 -22.136719 13.328125 -16.46875 13.328125 -8.011719 C 13.328125 -3.1875 10.003906 -0.308594 5.933594 -0.308594 C 3.277344 -0.308594 2.167969 -2.523438 2.167969 -4.25 Z M 2.167969 -4.25 "/></g></g></g><g fill="rgb(39.219666%, 39.219666%, 37.649536%)" fill-opacity="1"><g transform="translate(217.262462, 70.490046)"><g><path d="M 11.246094 -2.035156 C 11.335938 -0.972656 12.398438 0.886719 14.433594 0.886719 C 17.796875 0.886719 19.613281 -4.117188 19.613281 -6.464844 C 19.613281 -7.792969 18.328125 -7.660156 18.328125 -7.660156 C 18.019531 -5.003906 17.398438 -2.125 15.097656 -2.125 C 13.59375 -2.125 13.238281 -3.496094 13.238281 -5.535156 C 13.238281 -9.03125 14.34375 -13.636719 15.71875 -18.59375 C 15.984375 -19.613281 14.257812 -19.65625 13.859375 -19.789062 C 13.859375 -19.789062 13.902344 -20.054688 13.902344 -20.277344 C 13.902344 -21.605469 12.574219 -23.554688 9.5625 -23.554688 C 4.25 -23.554688 0.574219 -15.585938 0.574219 -7.570312 C 0.574219 -2.167969 3.054688 1.195312 6.332031 1.195312 C 8.5 1.195312 10.316406 -0.488281 11.023438 -2.035156 Z M 4.292969 -5.621094 C 4.292969 -10.269531 6.285156 -20.851562 9.519531 -20.851562 C 10.359375 -20.851562 10.359375 -19.789062 10.359375 -19.390625 C 10.359375 -17.796875 9.785156 -16.25 8.855469 -14.964844 C 9.472656 -14.257812 10.890625 -13.992188 10.890625 -13.992188 C 10.890625 -12.398438 8.5 -1.816406 5.886719 -1.816406 C 4.738281 -1.816406 4.292969 -2.878906 4.292969 -5.621094 Z M 4.292969 -5.621094 "/></g></g></g><g fill="rgb(39.219666%, 39.219666%, 37.649536%)" fill-opacity="1"><g transform="translate(234.214924, 70.490046)"><g><path d="M 8.765625 -13.902344 C 8.457031 -10.402344 8.277344 -6.242188 8.324219 -2.566406 C 8.367188 0.796875 8.722656 2.699219 10.714844 2.699219 C 11.644531 2.699219 12.21875 2.035156 12.21875 2.035156 C 12.175781 -2.125 14.257812 -10.402344 16.070312 -14.34375 L 16.601562 -14.34375 C 16.160156 -12.085938 15.273438 -7.480469 15.273438 -5.578125 C 15.273438 -1.992188 16.117188 1.195312 19.125 1.195312 C 22.226562 1.195312 24.128906 -2.214844 24.128906 -4.117188 C 24.128906 -5.222656 23.15625 -5.3125 23.15625 -5.3125 C 22.800781 -4.160156 21.914062 -1.816406 20.453125 -1.816406 C 19.214844 -1.816406 18.640625 -2.921875 18.640625 -5.179688 C 18.640625 -10.136719 20.984375 -16.824219 21.339844 -21.339844 C 21.472656 -22.757812 19.4375 -23.554688 18.242188 -23.554688 C 17.84375 -23.554688 17.445312 -23.554688 17.265625 -23.15625 C 14.789062 -18.375 13.328125 -12.707031 11.644531 -7.792969 L 11.46875 -7.792969 C 11.554688 -11.289062 12.265625 -16.203125 12.53125 -19.347656 C 12.664062 -20.765625 10.890625 -21.339844 9.695312 -21.339844 C 9.296875 -21.339844 8.898438 -21.339844 8.722656 -20.941406 C 7.347656 -17.664062 5.800781 -13.105469 4.117188 -8.191406 L 3.941406 -8.191406 C 3.941406 -11.070312 5.3125 -16.734375 6.199219 -21.117188 C 6.332031 -21.78125 4.914062 -22.667969 3.542969 -22.667969 C 2.523438 -22.667969 0.441406 -12 0.441406 -4.339844 C 0.441406 -0.707031 1.417969 1.417969 3.410156 1.417969 C 4.339844 1.417969 4.914062 0.753906 4.914062 0.753906 C 4.871094 -3.410156 6.996094 -10.003906 8.367188 -13.902344 Z M 8.765625 -13.902344 "/></g></g></g><g fill="rgb(39.219666%, 39.219666%, 37.649536%)" fill-opacity="1"><g transform="translate(256.124765, 70.490046)"><g><path d="M 1.949219 4.25 C -0.132812 3.894531 -1.195312 5.621094 -0.621094 7.039062 C -0.0898438 8.324219 2.789062 10.136719 6.152344 10.136719 C 8.589844 10.136719 11.289062 6.550781 12.929688 -1.019531 C 14.390625 -7.792969 14.921875 -14.566406 15.453125 -18.0625 C 15.585938 -19.082031 13.859375 -19.257812 13.59375 -19.257812 C 13.59375 -19.257812 13.636719 -19.613281 13.636719 -19.878906 C 13.636719 -22.710938 11.601562 -23.289062 9.828125 -23.289062 C 4.25 -23.289062 0.574219 -16.425781 0.574219 -8.410156 C 0.574219 -3.011719 2.878906 0.355469 6.417969 0.355469 C 8.144531 0.355469 9.605469 -2.035156 10.359375 -3.097656 C 9.472656 1.949219 7.171875 6.640625 5.179688 7.527344 C 4.515625 7.128906 2.480469 5.535156 1.949219 4.25 Z M 4.027344 -6.464844 C 4.027344 -11.113281 6.285156 -20.585938 9.519531 -20.585938 C 10.359375 -20.585938 10.847656 -19.703125 10.847656 -18.773438 C 10.847656 -17.710938 10.625 -15.363281 10.136719 -14.257812 C 10.757812 -13.546875 11.335938 -13.59375 11.335938 -13.59375 C 11.023438 -9.164062 8.542969 -2.433594 6.199219 -2.433594 C 5.046875 -2.433594 4.027344 -3.71875 4.027344 -6.464844 Z M 4.027344 -6.464844 "/></g></g></g><g fill="rgb(39.219666%, 39.219666%, 37.649536%)" fill-opacity="1"><g transform="translate(271.483787, 70.490046)"><g><path d="M 0.222656 -6.199219 C 0.222656 -3.585938 0.886719 0.175781 4.425781 0.175781 C 5.976562 0.175781 6.996094 -1.238281 7.570312 -2.613281 C 7.261719 0.839844 6.066406 6.730469 6.066406 8.410156 C 6.066406 9.121094 6.152344 9.296875 6.507812 9.519531 C 7.214844 9.917969 8.632812 10.492188 9.296875 10.492188 C 9.5625 10.492188 9.738281 10.402344 9.738281 10.136719 C 9.738281 5.753906 11.113281 -3.894531 11.777344 -8.367188 C 12.351562 -12.351562 14.300781 -16.957031 14.300781 -21.164062 C 14.300781 -22.136719 12.882812 -22.933594 11.421875 -22.933594 C 9.960938 -22.933594 8.808594 -10.359375 8.410156 -8.589844 C 7.96875 -6.597656 6.109375 -2.214844 4.648438 -2.214844 C 3.808594 -2.214844 3.628906 -3.320312 3.628906 -4.515625 C 3.628906 -9.871094 5.046875 -15.363281 6.507812 -20.542969 C 6.417969 -21.695312 5.089844 -22.359375 4.25 -22.359375 C 3.71875 -22.359375 3.277344 -22.226562 3.1875 -21.960938 C 1.59375 -17.089844 0.222656 -11.554688 0.222656 -6.199219 Z M 0.222656 -6.199219 "/></g></g></g><g fill="rgb(39.219666%, 39.219666%, 37.649536%)" fill-opacity="1"><g transform="translate(284.895264, 70.490046)"><g><path d="M 9.519531 -6.152344 C 9.386719 -3.628906 9.917969 -0.0429688 13.28125 -0.0429688 C 15.804688 -0.0429688 18.109375 -4.117188 18.109375 -5.800781 C 18.109375 -6.863281 17.3125 -6.90625 16.914062 -6.90625 C 16.914062 -6.90625 16.117188 -2.832031 14.210938 -2.832031 C 12.707031 -2.832031 12.351562 -5.222656 12.351562 -6.242188 C 12.351562 -9.5625 14.476562 -19.171875 14.476562 -20.808594 C 14.476562 -21.5625 12.839844 -22.492188 11.554688 -22.492188 C 11.15625 -22.492188 10.847656 -22.359375 10.804688 -21.960938 C 10.269531 -17.265625 7.746094 -8.277344 4.558594 -3.097656 L 3.941406 -3.320312 C 3.941406 -8.808594 5.179688 -15.007812 6.773438 -20.5 C 6.375 -21.117188 5.179688 -21.695312 4.605469 -21.695312 C 2.964844 -21.695312 0.222656 -10.582031 0.222656 -5.402344 C 0.222656 -2.390625 3.320312 0.621094 5.269531 0.621094 C 7.304688 0.621094 8.675781 -4.074219 9.253906 -6.109375 Z M 9.519531 -6.152344 "/></g></g></g><g fill="rgb(39.219666%, 39.219666%, 37.649536%)" fill-opacity="1"><g transform="translate(300.342815, 70.490046)"><g><path d="M 3.097656 -0.972656 L 3.1875 -1.902344 C 3.851562 0.0429688 5.136719 1.460938 7.347656 1.460938 C 13.0625 1.460938 14.742188 -9.074219 14.921875 -13.945312 C 15.054688 -18.550781 14.300781 -22.84375 9.652344 -22.84375 C 8.457031 -22.84375 6.949219 -21.960938 5.621094 -20.054688 L 5.710938 -21.03125 C 5.753906 -21.515625 4.25 -22.535156 3.230469 -22.535156 C 1.992188 -22.535156 0.886719 -13.195312 0.707031 -7.703125 C -0.53125 0.488281 -1.902344 8.898438 -1.417969 9.207031 C -0.621094 9.738281 1.238281 10.183594 1.503906 10.136719 C 1.816406 10.09375 1.949219 10.09375 2.035156 9.472656 C 2.300781 7.613281 2.65625 2.523438 3.097656 -0.972656 Z M 4.117188 -7.746094 C 4.160156 -9.207031 4.472656 -10.625 4.472656 -10.625 C 4.738281 -10.402344 5.535156 -10.050781 5.578125 -10.226562 C 6.019531 -12.75 8.101562 -20.5 10.667969 -20.5 C 12.441406 -20.5 12.175781 -17.355469 12.132812 -16.070312 C 12.042969 -13.460938 10.667969 -1.636719 6.550781 -1.636719 C 4.738281 -1.636719 4.027344 -4.382812 4.117188 -7.746094 Z M 4.117188 -7.746094 "/></g></g></g><g fill="rgb(39.219666%, 39.219666%, 37.649536%)" fill-opacity="1"><g transform="translate(315.303479, 70.490046)"><g><path d="M 3.984375 -16.25 C 4.292969 -16.601562 7.660156 -18.375 8.808594 -18.417969 C 9.253906 -18.417969 9.386719 -17.222656 9.828125 -17.222656 C 10.9375 -17.222656 13.945312 -19.65625 13.945312 -21.339844 C 13.945312 -22.136719 12.929688 -23.289062 12.484375 -23.289062 C 11.820312 -23.289062 1.0625 -19.4375 0.886719 -17.578125 C 0.796875 -16.425781 1.238281 -14.875 2.035156 -14.210938 C 4.957031 -13.859375 9.121094 -10.582031 9.121094 -6.066406 C 9.121094 -3.054688 7.792969 -1.019531 5.003906 -1.019531 C 2.433594 -1.019531 1.859375 -3.1875 1.859375 -3.585938 C 1.859375 -3.984375 3.761719 -7.480469 3.761719 -8.898438 C 3.761719 -9.296875 2.390625 -10.535156 1.769531 -10.535156 C 0.175781 -10.535156 -0.886719 -7.039062 -0.886719 -5.402344 C -0.886719 -1.902344 2.699219 2.257812 6.417969 2.257812 C 9.472656 2.257812 12.175781 0.355469 12.175781 -4.738281 C 12.175781 -12.441406 4.027344 -16.070312 4.027344 -16.070312 Z M 3.984375 -16.25 "/></g></g></g><g fill="rgb(39.219666%, 39.219666%, 37.649536%)" fill-opacity="1"><g transform="translate(327.918243, 70.490046)"><g><path d="M 11.246094 -2.035156 C 11.335938 -0.972656 12.398438 0.886719 14.433594 0.886719 C 17.796875 0.886719 19.613281 -4.117188 19.613281 -6.464844 C 19.613281 -7.792969 18.328125 -7.660156 18.328125 -7.660156 C 18.019531 -5.003906 17.398438 -2.125 15.097656 -2.125 C 13.59375 -2.125 13.238281 -3.496094 13.238281 -5.535156 C 13.238281 -9.03125 14.34375 -13.636719 15.71875 -18.59375 C 15.984375 -19.613281 14.257812 -19.65625 13.859375 -19.789062 C 13.859375 -19.789062 13.902344 -20.054688 13.902344 -20.277344 C 13.902344 -21.605469 12.574219 -23.554688 9.5625 -23.554688 C 4.25 -23.554688 0.574219 -15.585938 0.574219 -7.570312 C 0.574219 -2.167969 3.054688 1.195312 6.332031 1.195312 C 8.5 1.195312 10.316406 -0.488281 11.023438 -2.035156 Z M 4.292969 -5.621094 C 4.292969 -10.269531 6.285156 -20.851562 9.519531 -20.851562 C 10.359375 -20.851562 10.359375 -19.789062 10.359375 -19.390625 C 10.359375 -17.796875 9.785156 -16.25 8.855469 -14.964844 C 9.472656 -14.257812 10.890625 -13.992188 10.890625 -13.992188 C 10.890625 -12.398438 8.5 -1.816406 5.886719 -1.816406 C 4.738281 -1.816406 4.292969 -2.878906 4.292969 -5.621094 Z M 4.292969 -5.621094 "/></g></g></g><g fill="rgb(39.219666%, 39.219666%, 37.649536%)" fill-opacity="1"><g transform="translate(344.870705, 70.490046)"><g><path d="M 1.019531 0 C 1.238281 0.753906 4.074219 2.300781 4.558594 1.550781 C 4.605469 0.355469 4.691406 -0.839844 4.78125 -2.035156 C 5.355469 -11.6875 6.949219 -21.78125 8.542969 -31.125 C 8.675781 -31.921875 6.773438 -33.117188 5.710938 -33.117188 C 5.488281 -33.117188 5.136719 -33.074219 5.046875 -32.71875 C 3.496094 -25.148438 1.460938 -10.847656 1.0625 -3.984375 C 0.972656 -2.566406 0.753906 -0.621094 1.019531 0 Z M 1.019531 0 "/></g></g></g><g fill="rgb(39.219666%, 39.219666%, 37.649536%)" fill-opacity="1"><g transform="translate(351.731363, 70.490046)"><g/></g></g><g fill="rgb(39.219666%, 39.219666%, 37.649536%)" fill-opacity="1"><g transform="translate(360.583831, 70.490046)"><g><path d="M 2.433594 1.859375 C 2.65625 2.167969 4.472656 2.921875 5.402344 2.921875 C 5.800781 2.921875 5.933594 2.699219 6.109375 2.390625 C 6.597656 1.503906 7.214844 0.398438 7.660156 -1.019531 C 8.058594 -2.300781 6.375 -1.238281 6.550781 -2.035156 L 7.792969 -11.15625 C 15.1875 -11.820312 19.835938 -17.046875 19.835938 -22.84375 C 19.835938 -28.601562 14.609375 -31.875 8.542969 -31.875 C 0.398438 -31.875 -1.019531 -26.386719 -1.019531 -26.386719 C -0.929688 -25.722656 1.460938 -24.304688 1.859375 -24.304688 C 2.035156 -24.304688 2.125 -24.4375 2.125 -24.4375 C 2.832031 -26.5625 4.648438 -29.398438 10.050781 -29.398438 C 13.726562 -29.398438 16.382812 -27.273438 16.382812 -23.820312 C 16.382812 -18.816406 13.148438 -15.140625 8.191406 -13.992188 C 8.941406 -19.4375 9.785156 -24.75 10.359375 -26.960938 C 9.917969 -27.449219 8.808594 -27.890625 8.011719 -27.890625 C 6.816406 -27.890625 7.039062 -27.183594 6.90625 -26.652344 C 6.417969 -25.101562 5.488281 -19.703125 4.558594 -13.636719 C 2.832031 -13.636719 2.125 -14.125 1.726562 -14.167969 C 0.707031 -13.546875 0.488281 -12.132812 1.371094 -11.777344 C 2.082031 -11.46875 3.144531 -11.335938 4.160156 -11.203125 C 3.453125 -6.550781 2.832031 -1.726562 2.433594 1.859375 Z M 2.433594 1.859375 "/></g></g></g><g fill="rgb(39.219666%, 39.219666%, 37.649536%)" fill-opacity="1"><g transform="translate(379.085481, 70.490046)"><g><path d="M 5.089844 -13.148438 C 5.222656 -15.761719 5.800781 -19.039062 5.933594 -21.429688 C 5.933594 -21.429688 4.558594 -22.445312 3.410156 -22.445312 C 1.902344 -22.445312 1.769531 -18.195312 1.636719 -13.8125 C 1.285156 -4.207031 0.796875 -2.566406 0.796875 -1.285156 C 0.796875 -0.308594 3.675781 0.929688 4.691406 0.308594 C 4.78125 -6.949219 6.90625 -12.042969 7.703125 -14.433594 C 7.878906 -12.484375 8.542969 -10.757812 11.15625 -10.757812 C 13.460938 -10.757812 14.832031 -13.28125 14.921875 -14.832031 C 14.921875 -15.140625 14.523438 -15.40625 14.210938 -15.40625 C 13.945312 -15.40625 13.414062 -12.796875 11.644531 -12.796875 C 10.9375 -12.796875 10.316406 -13.503906 10.316406 -14.125 C 10.316406 -17.355469 12.21875 -19.96875 12.21875 -21.605469 C 12.21875 -22.492188 11.734375 -22.933594 10.804688 -23.15625 C 9.519531 -23.464844 8.367188 -23.109375 8.058594 -22.046875 C 7.4375 -19.835938 6.550781 -15.851562 5.402344 -13.015625 Z M 5.089844 -13.148438 "/></g></g></g><g fill="rgb(39.219666%, 39.219666%, 37.649536%)" fill-opacity="1"><g transform="translate(391.036299, 70.490046)"><g><path d="M 0.707031 -9.519531 C 0.574219 -4.648438 2.257812 1.460938 6.90625 1.460938 C 12.617188 1.460938 14.300781 -9.074219 14.476562 -13.945312 C 14.609375 -18.550781 13.859375 -22.84375 9.207031 -22.84375 C 8.277344 -22.84375 7.660156 -22.3125 7.660156 -22.3125 C 7.527344 -22.710938 7.082031 -23.109375 6.507812 -23.421875 C 3.71875 -22.578125 0.929688 -15.273438 0.707031 -9.519531 Z M 3.542969 -7.746094 C 3.585938 -9.386719 3.851562 -10.625 3.851562 -10.625 C 4.117188 -10.402344 5.089844 -10.050781 5.136719 -10.226562 C 5.578125 -12.75 7.660156 -20.5 10.226562 -20.5 C 12 -20.5 11.734375 -17.355469 11.6875 -16.070312 C 11.601562 -13.460938 10.226562 -1.636719 6.109375 -1.636719 C 4.292969 -1.636719 3.410156 -4.382812 3.542969 -7.746094 Z M 3.542969 -7.746094 "/></g></g></g><g fill="rgb(39.219666%, 39.219666%, 37.649536%)" fill-opacity="1"><g transform="translate(405.333008, 70.490046)"><g><path d="M 10.359375 -2.390625 C 10.359375 -0.621094 11.511719 0.886719 13.414062 0.886719 C 16.78125 0.886719 18.59375 -4.117188 18.59375 -6.464844 C 18.59375 -7.792969 17.3125 -7.660156 17.3125 -7.660156 C 17 -5.003906 16.070312 -2.125 14.609375 -2.125 C 13.679688 -2.125 13.148438 -2.789062 13.148438 -4.25 C 13.148438 -6.417969 16.292969 -28.15625 16.957031 -31.699219 C 17.132812 -32.628906 15.539062 -33.207031 13.992188 -33.207031 C 13.8125 -33.207031 13.371094 -33.160156 13.28125 -32.320312 C 13.0625 -30.59375 12.441406 -25.324219 11.820312 -21.871094 C 11.820312 -21.871094 10.714844 -22.933594 9.339844 -22.933594 C 3.363281 -22.933594 0.664062 -12.796875 0.664062 -6.550781 C 0.664062 -2.746094 1.992188 2.214844 5.976562 2.214844 C 7.96875 2.214844 9.652344 -0.796875 10.226562 -2.390625 Z M 3.984375 -3.894531 C 3.984375 -10.136719 6.550781 -20.71875 9.738281 -20.71875 C 10.402344 -20.71875 10.535156 -19.878906 10.535156 -19.171875 C 10.535156 -17.710938 9.785156 -15.628906 9.429688 -14.433594 C 9.871094 -13.769531 10.316406 -13.636719 10.757812 -13.546875 C 10.757812 -11.554688 7.261719 -0.972656 4.957031 -0.972656 C 4.074219 -0.972656 3.984375 -2.964844 3.984375 -3.894531 Z M 3.984375 -3.894531 "/></g></g></g><g fill="rgb(39.219666%, 39.219666%, 37.649536%)" fill-opacity="1"><g transform="translate(420.957605, 70.490046)"><g><path d="M 9.519531 -6.152344 C 9.386719 -3.628906 9.917969 -0.0429688 13.28125 -0.0429688 C 15.804688 -0.0429688 18.109375 -4.117188 18.109375 -5.800781 C 18.109375 -6.863281 17.3125 -6.90625 16.914062 -6.90625 C 16.914062 -6.90625 16.117188 -2.832031 14.210938 -2.832031 C 12.707031 -2.832031 12.351562 -5.222656 12.351562 -6.242188 C 12.351562 -9.5625 14.476562 -19.171875 14.476562 -20.808594 C 14.476562 -21.5625 12.839844 -22.492188 11.554688 -22.492188 C 11.15625 -22.492188 10.847656 -22.359375 10.804688 -21.960938 C 10.269531 -17.265625 7.746094 -8.277344 4.558594 -3.097656 L 3.941406 -3.320312 C 3.941406 -8.808594 5.179688 -15.007812 6.773438 -20.5 C 6.375 -21.117188 5.179688 -21.695312 4.605469 -21.695312 C 2.964844 -21.695312 0.222656 -10.582031 0.222656 -5.402344 C 0.222656 -2.390625 3.320312 0.621094 5.269531 0.621094 C 7.304688 0.621094 8.675781 -4.074219 9.253906 -6.109375 Z M 9.519531 -6.152344 "/></g></g></g><g fill="rgb(39.219666%, 39.219666%, 37.649536%)" fill-opacity="1"><g transform="translate(436.405144, 70.490046)"><g><path d="M 0.488281 -7.394531 C 0.488281 -1.59375 3.542969 2.347656 8.058594 2.347656 C 14.125 2.347656 15.851562 -5.003906 15.851562 -6.550781 C 15.851562 -8.632812 15.007812 -9.03125 14.476562 -9.03125 C 14.210938 -9.03125 13.769531 -8.988281 13.769531 -8.988281 C 13.503906 -6.242188 10.890625 -0.574219 7.261719 -0.574219 C 5.402344 -0.574219 4.160156 -1.859375 4.160156 -5.976562 C 4.160156 -12.75 6.332031 -19.703125 8.632812 -19.703125 C 9.164062 -19.703125 9.429688 -19.304688 9.429688 -18.640625 C 9.429688 -15.71875 7.925781 -14.078125 7.925781 -14.078125 L 7.925781 -13.8125 C 7.925781 -12.484375 8.632812 -11.6875 9.871094 -11.6875 C 11.46875 -11.6875 13.148438 -13.636719 13.148438 -17.796875 C 13.148438 -20.1875 10.980469 -22.3125 8.722656 -22.3125 C 3.097656 -22.3125 0.488281 -12.929688 0.488281 -7.394531 Z M 0.488281 -7.394531 "/></g></g></g><g fill="rgb(39.219666%, 39.219666%, 37.649536%)" fill-opacity="1"><g transform="translate(449.728104, 70.490046)"><g><path d="M 2.082031 -18.375 L 4.074219 -18.816406 C 2.964844 -14.078125 2.082031 -8.765625 2.082031 -6.109375 C 2.082031 -1.550781 4.605469 1.59375 7.613281 1.59375 C 10.449219 1.59375 14.65625 -1.859375 14.65625 -4.871094 C 14.65625 -7.527344 13.0625 -7.128906 13.0625 -7.128906 C 12.882812 -4.78125 9.296875 -1.636719 6.683594 -1.636719 C 5.753906 -1.636719 5.269531 -2.347656 5.269531 -3.496094 C 5.269531 -7.527344 6.640625 -13.8125 8.101562 -19.480469 C 10.359375 -19.835938 12.839844 -20.144531 14.65625 -20.1875 C 15.230469 -20.1875 15.320312 -20.542969 15.320312 -20.851562 C 15.320312 -21.117188 14.609375 -22.09375 14.390625 -22.3125 C 13.859375 -22.84375 13.460938 -22.359375 13.195312 -22.976562 C 12.929688 -23.554688 12.085938 -23.375 11.113281 -23.289062 C 10.582031 -23.242188 9.871094 -23.15625 9.03125 -23.023438 L 9.917969 -26.296875 C 10.050781 -26.785156 7.746094 -28.46875 6.996094 -27.9375 C 6.507812 -27.582031 5.710938 -25.324219 4.914062 -22.3125 C 2.699219 -21.871094 0.664062 -21.339844 0.175781 -20.941406 C -0.441406 -20.410156 0.929688 -18.109375 2.082031 -18.375 Z M 2.082031 -18.375 "/></g></g></g><g fill="rgb(39.219666%, 39.219666%, 37.649536%)" fill-opacity="1"><g transform="translate(462.829742, 70.490046)"><g><path d="M 3.984375 -16.25 C 4.292969 -16.601562 7.660156 -18.375 8.808594 -18.417969 C 9.253906 -18.417969 9.386719 -17.222656 9.828125 -17.222656 C 10.9375 -17.222656 13.945312 -19.65625 13.945312 -21.339844 C 13.945312 -22.136719 12.929688 -23.289062 12.484375 -23.289062 C 11.820312 -23.289062 1.0625 -19.4375 0.886719 -17.578125 C 0.796875 -16.425781 1.238281 -14.875 2.035156 -14.210938 C 4.957031 -13.859375 9.121094 -10.582031 9.121094 -6.066406 C 9.121094 -3.054688 7.792969 -1.019531 5.003906 -1.019531 C 2.433594 -1.019531 1.859375 -3.1875 1.859375 -3.585938 C 1.859375 -3.984375 3.761719 -7.480469 3.761719 -8.898438 C 3.761719 -9.296875 2.390625 -10.535156 1.769531 -10.535156 C 0.175781 -10.535156 -0.886719 -7.039062 -0.886719 -5.402344 C -0.886719 -1.902344 2.699219 2.257812 6.417969 2.257812 C 9.472656 2.257812 12.175781 0.355469 12.175781 -4.738281 C 12.175781 -12.441406 4.027344 -16.070312 4.027344 -16.070312 Z M 3.984375 -16.25 "/></g></g></g><path stroke-linecap="butt" transform="matrix(5.231198, 0, 0, 5.483824, 30.891111, 58.676843)" fill="none" stroke-linejoin="miter" d="M -0.0000929226 -0.000193551 L 28.97794 -0.000193551 " stroke="rgb(39.219666%, 39.219666%, 37.649536%)" stroke-width="1" stroke-opacity="1" stroke-miterlimit="4"/><path stroke-linecap="butt" transform="matrix(5.231198, 0, 0, 5.483824, 492.649645, 60.104029)" fill="none" stroke-linejoin="miter" d="M -0.000230807 0.000262528 L 28.977802 0.000262528 " stroke="rgb(39.219666%, 39.219666%, 37.649536%)" stroke-width="1" stroke-opacity="1" stroke-miterlimit="4"/></svg>