<svg xmlns="http://www.w3.org/2000/svg" xmlns:xlink="http://www.w3.org/1999/xlink" width="900" zoomAndPan="magnify" viewBox="0 0 675 112.499997" height="150" preserveAspectRatio="xMidYMid meet" version="1.0"><defs><g/><clipPath id="id1"><path d="M 1.492188 0 L 673.503906 0 L 673.503906 112.003906 L 1.492188 112.003906 Z M 1.492188 0 " clip-rule="nonzero"/></clipPath></defs><g clip-path="url(#id1)"><path fill="rgb(100%, 100%, 100%)" d="M 1.492188 0 L 673.507812 0 L 673.507812 119.46875 L 1.492188 119.46875 Z M 1.492188 0 " fill-opacity="1" fill-rule="nonzero"/><path fill="rgb(97.648621%, 97.648621%, 93.728638%)" d="M 1.492188 0 L 673.507812 0 L 673.507812 112.003906 L 1.492188 112.003906 Z M 1.492188 0 " fill-opacity="1" fill-rule="nonzero"/><path fill="rgb(100%, 100%, 100%)" d="M 1.492188 0 L 673.507812 0 L 673.507812 112.003906 L 1.492188 112.003906 Z M 1.492188 0 " fill-opacity="1" fill-rule="nonzero"/><path fill="rgb(97.648621%, 97.648621%, 93.728638%)" d="M 1.492188 0 L 673.507812 0 L 673.507812 112.003906 L 1.492188 112.003906 Z M 1.492188 0 " fill-opacity="1" fill-rule="nonzero"/></g><g fill="rgb(100%, 74.899292%, 13.729858%)" fill-opacity="1"><g transform="translate(263.80026, 70.561389)"><g><path d="M 2.167969 -4.25 C 2.167969 -6.417969 3.71875 -8.855469 4.648438 -9.785156 C 4.382812 -10.757812 3.453125 -11.289062 2.214844 -11.289062 C 0.265625 -11.289062 -0.886719 -8.410156 -0.886719 -6.417969 C -0.886719 -2.390625 2.613281 2.746094 8.234375 2.746094 C 12.484375 2.746094 16.867188 -0.132812 16.867188 -5.933594 C 16.867188 -16.378906 8.011719 -22.402344 6.152344 -23.417969 C 8.058594 -25.058594 16.203125 -27.933594 16.203125 -26.871094 C 16.203125 -26.386719 14.652344 -24.527344 14.652344 -24.128906 C 14.652344 -23.816406 14.742188 -23.640625 15.050781 -23.640625 C 16.160156 -23.640625 19.523438 -26.429688 19.523438 -28.554688 C 19.523438 -29.085938 17.886719 -30.769531 17.089844 -30.855469 C 12.660156 -31.253906 1.195312 -27.535156 1.285156 -24.660156 C 1.285156 -24.304688 2.300781 -22.355469 2.699219 -22.3125 C 5.578125 -22.136719 13.324219 -16.46875 13.324219 -8.011719 C 13.324219 -3.1875 10.003906 -0.308594 5.933594 -0.308594 C 3.277344 -0.308594 2.167969 -2.523438 2.167969 -4.25 Z M 2.167969 -4.25 "/></g></g></g><g fill="rgb(100%, 74.899292%, 13.729858%)" fill-opacity="1"><g transform="translate(281.550235, 70.561389)"><g><path d="M 6.464844 -25.144531 C 9.253906 -25.144531 10.183594 -27.757812 10.183594 -29.175781 C 10.183594 -30.371094 9.519531 -30.855469 8.855469 -31.210938 C 9.164062 -32.628906 8.5 -32.894531 7.394531 -32.894531 C 5.179688 -32.894531 4.605469 -29.175781 4.605469 -27.933594 C 4.605469 -25.941406 5.753906 -25.144531 6.464844 -25.144531 Z M 0.886719 -3.496094 C 0.886719 0 2.167969 1.816406 4.691406 1.816406 C 9.605469 1.816406 11.199219 -3.277344 11.199219 -6.066406 C 11.199219 -7.835938 9.5625 -7.394531 9.5625 -7.394531 C 9.429688 -5.621094 8.632812 -0.796875 5.886719 -0.796875 C 5.179688 -0.796875 4.558594 -1.59375 4.558594 -3.230469 C 4.515625 -6.683594 6.550781 -15.273438 7.878906 -20.144531 C 8.277344 -21.648438 4.558594 -21.78125 4.648438 -21.78125 C 4.339844 -21.78125 3.984375 -21.691406 3.851562 -21.207031 C 2.964844 -18.0625 0.886719 -8.144531 0.886719 -3.496094 Z M 0.886719 -3.496094 "/></g></g></g><g fill="rgb(100%, 74.899292%, 13.729858%)" fill-opacity="1"><g transform="translate(290.314558, 70.561389)"><g><path d="M 10.359375 -2.390625 C 10.359375 -0.621094 11.511719 0.886719 13.414062 0.886719 C 16.777344 0.886719 18.59375 -4.117188 18.59375 -6.464844 C 18.59375 -7.792969 17.308594 -7.660156 17.308594 -7.660156 C 17 -5.003906 16.070312 -2.125 14.609375 -2.125 C 13.679688 -2.125 13.148438 -2.789062 13.148438 -4.25 C 13.148438 -6.417969 16.292969 -28.15625 16.957031 -31.699219 C 17.132812 -32.628906 15.539062 -33.203125 13.988281 -33.203125 C 13.8125 -33.203125 13.371094 -33.160156 13.28125 -32.316406 C 13.058594 -30.589844 12.441406 -25.324219 11.820312 -21.871094 C 11.820312 -21.871094 10.714844 -22.933594 9.339844 -22.933594 C 3.363281 -22.933594 0.664062 -12.792969 0.664062 -6.550781 C 0.664062 -2.746094 1.992188 2.214844 5.976562 2.214844 C 7.96875 2.214844 9.652344 -0.796875 10.226562 -2.390625 Z M 3.984375 -3.894531 C 3.984375 -10.136719 6.550781 -20.71875 9.738281 -20.71875 C 10.402344 -20.71875 10.535156 -19.878906 10.535156 -19.167969 C 10.535156 -17.707031 9.785156 -15.628906 9.429688 -14.433594 C 9.871094 -13.769531 10.316406 -13.636719 10.757812 -13.546875 C 10.757812 -11.554688 7.261719 -0.972656 4.957031 -0.972656 C 4.074219 -0.972656 3.984375 -2.964844 3.984375 -3.894531 Z M 3.984375 -3.894531 "/></g></g></g><g fill="rgb(100%, 74.899292%, 13.729858%)" fill-opacity="1"><g transform="translate(305.939848, 70.561389)"><g><path d="M 0 -5.179688 C 0 0.355469 3.1875 3.496094 6.597656 3.496094 C 11.511719 3.496094 13.902344 -3.011719 13.902344 -6.863281 C 13.902344 -8.101562 13.324219 -8.988281 12.617188 -8.988281 C 11.996094 -8.988281 11.996094 -8.5 11.996094 -8.5 C 11.996094 -5.578125 9.253906 -0.0429688 5.84375 -0.0429688 C 3.585938 -0.0429688 2.789062 -1.59375 2.789062 -3.675781 C 2.789062 -7.261719 3.585938 -9.605469 3.585938 -9.605469 C 3.585938 -9.605469 4.25 -7.746094 6.152344 -7.746094 C 9.652344 -7.746094 11.199219 -12.882812 11.199219 -18.550781 C 11.199219 -22.621094 9.253906 -23.949219 7.570312 -23.949219 C 3.675781 -23.949219 0 -12.574219 0 -5.179688 Z M 4.117188 -11.511719 C 4.605469 -14.742188 5.84375 -18.371094 6.90625 -20.761719 C 7.171875 -21.382812 7.394531 -21.558594 7.570312 -21.558594 C 7.792969 -21.558594 8.101562 -21.339844 8.101562 -19.480469 C 8.101562 -15.40625 6.773438 -10.402344 5.222656 -10.402344 C 4.339844 -10.402344 4.117188 -11.511719 4.117188 -11.511719 Z M 4.117188 -11.511719 "/></g></g></g><g fill="rgb(100%, 74.899292%, 13.729858%)" fill-opacity="1"><g transform="translate(317.625623, 70.561389)"><g/></g></g><g fill="rgb(100%, 74.899292%, 13.729858%)" fill-opacity="1"><g transform="translate(326.478484, 70.561389)"><g><path d="M 2.613281 -4.691406 C 2.523438 -5.046875 3.542969 -4.648438 3.496094 -5.046875 C 3.410156 -5.933594 2.699219 -7.527344 2.082031 -8.144531 C 1.238281 -8.988281 -0.707031 -7.570312 -1.328125 -6.683594 C -1.105469 -1.949219 3.894531 3.496094 9.828125 3.496094 C 17.089844 3.496094 22.269531 -4.074219 22.269531 -16.777344 C 22.269531 -23.550781 18.726562 -28.910156 13.28125 -30.238281 C 13.371094 -30.457031 13.414062 -30.722656 13.457031 -30.945312 C 13.015625 -31.433594 12.085938 -31.875 11.289062 -31.875 C 10.09375 -31.875 10.316406 -31.167969 10.183594 -30.636719 C 10.183594 -30.589844 10.136719 -30.546875 10.136719 -30.503906 C 2.613281 -30.148438 1.726562 -21.160156 1.726562 -21.160156 C 1.949219 -19.746094 4.339844 -19.566406 4.78125 -19.566406 C 4.914062 -19.566406 4.957031 -19.566406 4.957031 -19.613281 C 5.535156 -22.578125 6.285156 -26.207031 9.429688 -27.492188 C 8.234375 -21.558594 6.199219 -9.605469 5.402344 -2.433594 C 5.621094 -2.125 7.347656 -1.238281 8.277344 -1.238281 C 8.675781 -1.238281 8.941406 -1.417969 8.988281 -1.769531 C 9.519531 -6.464844 11.464844 -20.71875 12.792969 -27.890625 C 16.601562 -27.449219 18.683594 -24.039062 18.683594 -18.992188 C 18.683594 -6.90625 14.210938 0.707031 8.5 0.707031 C 5.046875 0.707031 3.277344 -1.683594 2.613281 -4.691406 Z M 2.613281 -4.691406 "/></g></g></g><g fill="rgb(100%, 74.899292%, 13.729858%)" fill-opacity="1"><g transform="translate(348.300776, 70.561389)"><g><path d="M 6.464844 -25.144531 C 9.253906 -25.144531 10.183594 -27.757812 10.183594 -29.175781 C 10.183594 -30.371094 9.519531 -30.855469 8.855469 -31.210938 C 9.164062 -32.628906 8.5 -32.894531 7.394531 -32.894531 C 5.179688 -32.894531 4.605469 -29.175781 4.605469 -27.933594 C 4.605469 -25.941406 5.753906 -25.144531 6.464844 -25.144531 Z M 0.886719 -3.496094 C 0.886719 0 2.167969 1.816406 4.691406 1.816406 C 9.605469 1.816406 11.199219 -3.277344 11.199219 -6.066406 C 11.199219 -7.835938 9.5625 -7.394531 9.5625 -7.394531 C 9.429688 -5.621094 8.632812 -0.796875 5.886719 -0.796875 C 5.179688 -0.796875 4.558594 -1.59375 4.558594 -3.230469 C 4.515625 -6.683594 6.550781 -15.273438 7.878906 -20.144531 C 8.277344 -21.648438 4.558594 -21.78125 4.648438 -21.78125 C 4.339844 -21.78125 3.984375 -21.691406 3.851562 -21.207031 C 2.964844 -18.0625 0.886719 -8.144531 0.886719 -3.496094 Z M 0.886719 -3.496094 "/></g></g></g><g fill="rgb(100%, 74.899292%, 13.729858%)" fill-opacity="1"><g transform="translate(357.065099, 70.561389)"><g><path d="M 3.984375 -16.246094 C 4.292969 -16.601562 7.660156 -18.371094 8.808594 -18.417969 C 9.253906 -18.417969 9.386719 -17.222656 9.828125 -17.222656 C 10.933594 -17.222656 13.945312 -19.65625 13.945312 -21.339844 C 13.945312 -22.136719 12.925781 -23.285156 12.484375 -23.285156 C 11.820312 -23.285156 1.0625 -19.433594 0.886719 -17.574219 C 0.796875 -16.425781 1.238281 -14.875 2.035156 -14.210938 C 4.957031 -13.855469 9.121094 -10.582031 9.121094 -6.066406 C 9.121094 -3.054688 7.792969 -1.019531 5.003906 -1.019531 C 2.433594 -1.019531 1.859375 -3.1875 1.859375 -3.585938 C 1.859375 -3.984375 3.761719 -7.480469 3.761719 -8.898438 C 3.761719 -9.296875 2.390625 -10.535156 1.769531 -10.535156 C 0.175781 -10.535156 -0.886719 -7.039062 -0.886719 -5.402344 C -0.886719 -1.902344 2.699219 2.257812 6.417969 2.257812 C 9.472656 2.257812 12.175781 0.355469 12.175781 -4.738281 C 12.175781 -12.441406 4.027344 -16.070312 4.027344 -16.070312 Z M 3.984375 -16.246094 "/></g></g></g><g fill="rgb(100%, 74.899292%, 13.729858%)" fill-opacity="1"><g transform="translate(369.68042, 70.561389)"><g><path d="M 10.449219 -15.183594 C 10.09375 -13.988281 9.164062 -9.296875 9.164062 -6.417969 C 9.164062 -3.453125 10.316406 0.929688 13.769531 0.929688 C 16.734375 0.929688 19.613281 -2.082031 19.613281 -5.046875 C 19.613281 -6.597656 18.328125 -6.464844 18.328125 -6.464844 C 17.664062 -4.160156 16.425781 -1.636719 15.050781 -1.636719 C 13.636719 -1.636719 13.105469 -3.054688 13.105469 -4.824219 C 13.105469 -10.535156 15.316406 -18.460938 15.316406 -20.71875 C 15.316406 -21.691406 13.015625 -22.621094 11.863281 -22.621094 C 9.695312 -22.621094 6.066406 -11.730469 5.046875 -8.855469 L 4.648438 -8.941406 C 4.648438 -10.933594 6.152344 -22.445312 6.683594 -25.144531 C 7.171875 -27.535156 7.925781 -29.308594 7.925781 -31.875 C 7.925781 -33.113281 5.089844 -34 4.425781 -33.292969 C 2.746094 -31.386719 0.753906 -6.199219 0.753906 -1.371094 C 0.753906 -0.441406 2.347656 1.371094 3.941406 1.371094 C 4.871094 1.371094 5.046875 0.972656 5.046875 0.972656 C 5.445312 -4.78125 9.074219 -14.121094 9.917969 -15.273438 Z M 10.449219 -15.183594 "/></g></g></g><g fill="rgb(100%, 74.899292%, 13.729858%)" fill-opacity="1"><g transform="translate(386.854957, 70.561389)"><g><path d="M 0 -5.179688 C 0 0.355469 3.1875 3.496094 6.597656 3.496094 C 11.511719 3.496094 13.902344 -3.011719 13.902344 -6.863281 C 13.902344 -8.101562 13.324219 -8.988281 12.617188 -8.988281 C 11.996094 -8.988281 11.996094 -8.5 11.996094 -8.5 C 11.996094 -5.578125 9.253906 -0.0429688 5.84375 -0.0429688 C 3.585938 -0.0429688 2.789062 -1.59375 2.789062 -3.675781 C 2.789062 -7.261719 3.585938 -9.605469 3.585938 -9.605469 C 3.585938 -9.605469 4.25 -7.746094 6.152344 -7.746094 C 9.652344 -7.746094 11.199219 -12.882812 11.199219 -18.550781 C 11.199219 -22.621094 9.253906 -23.949219 7.570312 -23.949219 C 3.675781 -23.949219 0 -12.574219 0 -5.179688 Z M 4.117188 -11.511719 C 4.605469 -14.742188 5.84375 -18.371094 6.90625 -20.761719 C 7.171875 -21.382812 7.394531 -21.558594 7.570312 -21.558594 C 7.792969 -21.558594 8.101562 -21.339844 8.101562 -19.480469 C 8.101562 -15.40625 6.773438 -10.402344 5.222656 -10.402344 C 4.339844 -10.402344 4.117188 -11.511719 4.117188 -11.511719 Z M 4.117188 -11.511719 "/></g></g></g><g fill="rgb(100%, 74.899292%, 13.729858%)" fill-opacity="1"><g transform="translate(398.540733, 70.561389)"><g><path d="M 3.984375 -16.246094 C 4.292969 -16.601562 7.660156 -18.371094 8.808594 -18.417969 C 9.253906 -18.417969 9.386719 -17.222656 9.828125 -17.222656 C 10.933594 -17.222656 13.945312 -19.65625 13.945312 -21.339844 C 13.945312 -22.136719 12.925781 -23.285156 12.484375 -23.285156 C 11.820312 -23.285156 1.0625 -19.433594 0.886719 -17.574219 C 0.796875 -16.425781 1.238281 -14.875 2.035156 -14.210938 C 4.957031 -13.855469 9.121094 -10.582031 9.121094 -6.066406 C 9.121094 -3.054688 7.792969 -1.019531 5.003906 -1.019531 C 2.433594 -1.019531 1.859375 -3.1875 1.859375 -3.585938 C 1.859375 -3.984375 3.761719 -7.480469 3.761719 -8.898438 C 3.761719 -9.296875 2.390625 -10.535156 1.769531 -10.535156 C 0.175781 -10.535156 -0.886719 -7.039062 -0.886719 -5.402344 C -0.886719 -1.902344 2.699219 2.257812 6.417969 2.257812 C 9.472656 2.257812 12.175781 0.355469 12.175781 -4.738281 C 12.175781 -12.441406 4.027344 -16.070312 4.027344 -16.070312 Z M 3.984375 -16.246094 "/></g></g></g><path stroke-linecap="butt" transform="matrix(5.2279, 0, 0, 5.22677, 30.891111, 58.855475)" fill="none" stroke-linejoin="miter" d="M -0.0000929812 -0.00000121744 L 41.27858 -0.00000121744 " stroke="rgb(100%, 74.899292%, 13.729858%)" stroke-width="1" stroke-opacity="1" stroke-miterlimit="4"/><path stroke-linecap="butt" transform="matrix(5.2279, 0, 0, 5.22677, 428.355266, 58.855475)" fill="none" stroke-linejoin="miter" d="M 0.0000387298 -0.00000121744 L 41.278711 -0.00000121744 " stroke="rgb(100%, 74.899292%, 13.729858%)" stroke-width="1" stroke-opacity="1" stroke-miterlimit="4"/></svg>